<svg xmlns="http://www.w3.org/2000/svg" xmlns:v="https://svgstorm.com"
viewBox = "0 0 1000 1000"
width="1000"
height="1000">
<g fill="None" fill-opacity="0.0" stroke="#FEFFFF" stroke-opacity="0.01" stroke-width="0.3"><path d="
M 0.00 1000.00 
L 1000.00 1000.00
L 1000.00 0.00
L 0.00 0.00
L 0.00 1000.00
M 210.00 439.00 
C 215.27 433.99 222.09 431.75 228.08 428.08 C 233.23 423.17 244.49 424.55 245.99 416.99 C 244.01 410.44 247.29 391.74 252.97 405.03 C 251.90 414.13 252.30 423.29 263.07 423.93 C 276.45 428.66 287.24 438.10 298.00 447.00
C 299.46 425.07 296.29 404.61 294.22 383.78 C 279.95 382.83 290.19 373.17 298.23 371.23 C 309.75 369.39 311.75 359.42 310.00 349.00 C 306.85 342.81 298.87 328.13 312.00 329.00
C 313.56 313.48 309.48 295.83 318.77 282.77 C 325.23 278.05 317.83 264.47 325.68 263.34 C 324.21 278.32 339.16 290.00 335.22 305.22 C 336.53 313.12 337.65 321.43 337.00 330.00
C 350.01 329.26 340.01 343.67 339.01 350.01 C 336.98 360.31 339.90 369.20 350.70 371.31 C 358.41 373.38 369.23 382.24 355.00 384.00
C 355.94 393.42 354.73 402.20 351.00 410.00 C 351.28 440.16 350.88 470.13 350.00 500.00 C 352.13 511.29 349.49 521.04 336.00 517.00 C 323.14 511.98 322.83 532.18 336.00 527.00 C 345.24 527.03 354.94 525.41 362.00 532.00
C 317.24 534.33 270.52 532.33 225.00 533.00 C 209.03 530.00 221.48 546.10 221.00 554.00 C 225.00 561.94 226.73 571.36 231.00 579.00
C 228.18 564.08 243.55 534.39 260.08 550.92 C 276.20 565.82 266.23 591.16 269.00 611.00
C 283.65 613.63 274.44 592.79 277.00 584.00 C 272.12 568.33 286.20 535.49 304.25 549.75 C 321.67 564.99 311.10 591.35 314.00 612.00
C 317.00 612.00 320.00 612.00 323.00 612.00
C 325.01 588.79 314.29 556.27 341.03 545.03 C 369.34 553.37 359.36 588.16 361.00 611.00
C 366.32 610.21 373.26 610.67 371.00 618.00
C 331.00 618.00 291.00 618.00 251.00 618.00
C 254.41 626.45 261.19 633.86 266.25 641.75 C 271.70 649.16 281.18 656.64 271.74 664.74 C 264.04 669.72 259.31 652.54 252.75 648.25 C 165.02 530.32 176.53 348.16 285.75 245.75 C 367.69 160.26 499.90 133.69 609.22 176.78 C 616.44 179.42 635.12 184.53 624.75 194.75 C 614.50 198.56 606.05 188.19 596.32 186.68 C 468.32 138.49 312.93 197.89 247.08 318.08 C 226.85 355.33 211.73 395.72 210.00 439.00
M 681.00 266.00 
C 685.43 290.67 649.71 272.00 642.70 291.70 C 634.53 305.44 620.53 312.94 607.30 320.30 C 592.81 326.71 587.37 349.56 569.00 347.00
C 571.11 368.13 553.82 382.23 545.25 399.25 C 534.92 414.34 526.76 430.71 515.25 445.25 C 496.62 460.96 481.55 433.76 464.77 429.23 C 447.35 413.47 468.63 393.42 477.25 379.25 C 486.57 363.25 498.37 348.03 507.00 332.00
C 493.63 331.52 494.65 314.85 500.92 306.92 C 509.27 278.22 531.81 256.68 555.23 238.23 C 577.94 231.34 603.64 235.88 625.08 225.08 C 634.83 222.08 636.89 203.78 648.74 210.26 C 657.14 208.97 664.32 198.96 672.23 194.23 C 679.70 187.91 688.06 183.04 695.25 176.25 C 702.32 173.11 714.91 155.85 718.99 170.01 C 727.56 187.84 740.16 203.81 749.92 221.08 C 761.71 230.92 748.52 238.11 738.92 240.92 C 719.49 248.92 700.62 258.51 681.00 266.00
M 805.00 326.00 
C 796.51 329.57 787.78 332.25 779.00 335.00
C 790.86 370.38 804.20 406.24 805.00 445.00 C 810.74 520.98 787.49 594.46 743.00 654.00
C 739.60 649.77 731.95 641.66 737.75 636.75 C 740.39 630.10 747.27 625.40 748.00 618.00
C 741.15 615.90 724.22 623.15 725.33 612.33 C 724.90 603.97 724.98 594.01 725.00 585.00 C 723.46 576.62 728.44 565.63 721.75 559.25 C 709.69 542.31 692.87 564.23 698.00 579.00 C 696.62 587.00 702.11 599.66 692.00 603.00
C 694.73 586.23 685.03 564.27 700.25 552.25 C 709.96 536.83 730.57 552.31 731.00 566.00 C 731.00 576.00 731.00 586.00 731.00 596.00 C 728.59 607.26 732.26 615.69 745.00 612.00
C 748.44 591.09 735.90 563.41 756.25 549.25 C 762.93 538.32 772.21 549.05 779.00 553.00
C 780.93 546.41 783.52 539.99 784.00 533.00
C 735.67 533.00 687.33 533.00 639.00 533.00
C 643.77 523.39 655.44 528.07 664.00 527.00 C 685.33 527.00 706.67 527.00 728.00 527.00 C 732.57 518.85 728.74 506.69 730.00 497.00
C 703.47 504.22 679.68 521.01 650.00 517.00
C 649.55 500.01 682.70 520.93 677.00 500.00 C 677.00 485.00 677.00 470.00 677.00 455.00
C 668.88 456.45 654.32 452.04 651.01 460.01 C 650.32 469.84 652.34 480.99 650.00 490.00
C 641.55 479.32 651.46 461.22 641.75 452.25 C 636.58 446.44 644.48 438.92 651.00 441.00
C 651.84 419.33 670.51 403.21 689.23 395.23 C 700.58 395.39 689.99 379.02 699.03 377.03 C 703.73 382.44 697.17 394.87 708.23 395.77 C 727.76 402.73 745.02 419.75 747.00 441.00
C 758.37 439.02 758.10 451.66 752.03 457.03 C 753.85 464.80 746.44 482.69 760.00 480.00 C 770.67 480.00 781.33 480.00 792.00 480.00
C 794.14 433.00 785.60 384.75 764.92 344.08 C 756.89 349.86 750.13 357.47 742.00 363.00
C 739.90 338.78 741.50 313.62 741.00 289.00
C 762.79 299.66 784.79 312.56 805.00 326.00
M 454.00 459.00 
C 461.80 455.40 472.22 447.57 480.75 454.25 C 486.73 460.56 493.53 466.37 499.00 473.00
C 505.96 471.24 507.42 460.50 515.01 460.01 C 524.71 462.21 532.57 458.45 532.26 448.26 C 534.35 433.63 556.47 425.72 567.25 437.75 C 568.92 446.84 574.87 451.00 583.00 446.00
C 581.91 439.49 578.28 416.10 590.25 425.75 C 600.43 425.39 606.78 433.55 616.00 435.00 C 626.22 439.53 611.02 448.52 607.00 453.00
C 612.97 461.07 614.68 470.90 615.00 481.00
C 642.23 470.74 652.73 520.97 626.33 523.33 C 622.45 561.00 620.69 599.97 617.00 638.00 C 614.34 649.24 620.04 666.00 609.92 672.92 C 599.94 676.46 590.95 682.28 581.00 686.00
C 578.32 670.59 578.93 654.34 576.02 638.98 C 572.99 625.68 574.44 608.87 563.92 599.08 C 552.58 587.77 539.01 602.15 533.23 612.23 C 526.60 623.91 523.04 636.91 507.78 638.78 C 494.86 643.54 482.53 650.22 469.00 653.00
C 470.91 634.30 449.60 625.04 449.02 606.98 C 449.70 584.19 418.78 588.33 414.68 606.68 C 401.67 621.89 405.18 642.47 407.00 661.00
C 402.92 659.87 398.89 659.41 395.00 658.00
C 394.13 662.57 389.82 664.90 386.00 667.00
C 381.76 629.99 379.34 592.50 377.00 555.00 C 371.94 545.22 381.34 525.21 368.78 522.22 C 356.37 518.44 358.36 502.80 359.78 492.78 C 362.28 480.14 377.14 478.72 388.00 480.00
C 385.42 470.99 379.94 462.83 380.00 453.00 C 377.93 442.04 385.92 434.31 386.00 424.00
C 379.21 419.92 374.03 405.28 381.75 399.75 C 390.56 396.73 400.11 389.73 409.69 393.31 C 415.61 399.95 413.21 412.25 422.23 416.77 C 441.99 421.49 448.03 442.88 454.00 459.00
M 668.00 463.00 
C 675.05 469.63 670.89 480.32 672.00 489.00 C 666.15 495.97 651.07 492.48 656.00 481.00 C 654.92 472.69 656.34 459.74 668.00 463.00
M 678.00 611.00 
C 681.00 611.00 684.00 611.00 687.00 611.00
C 685.50 622.96 670.35 616.30 662.00 618.00 C 651.00 618.00 640.00 618.00 629.00 618.00
C 625.36 607.43 643.08 616.47 639.00 605.00 C 640.95 585.42 631.79 558.64 652.75 547.75 C 662.68 540.20 674.94 555.08 677.93 564.07 C 678.10 579.71 677.95 595.36 678.00 611.00
M 434.00 606.00 
C 436.18 620.76 444.26 633.69 453.75 645.25 C 454.23 651.47 452.07 664.89 445.00 664.00
C 445.38 685.56 448.45 707.87 441.00 728.00
C 457.81 714.23 474.83 695.98 498.00 696.00 C 524.34 693.59 541.70 724.49 531.02 747.02 C 508.75 793.05 451.53 798.44 406.00 801.00 C 381.91 802.09 359.01 788.96 351.00 766.00
C 342.56 788.04 317.27 794.40 295.93 788.07 C 268.84 783.60 281.30 751.96 292.75 737.75 C 305.58 721.56 325.89 715.14 339.97 702.97 C 338.97 692.60 349.20 683.08 358.00 680.00
C 362.11 699.62 362.29 719.92 367.93 739.07 C 370.57 756.70 386.45 773.11 405.22 769.22 C 438.87 742.04 424.74 694.75 422.01 657.99 C 417.79 639.94 416.98 617.31 434.00 606.00
M 555.00 609.00 
C 568.19 650.60 564.34 696.98 569.00 741.00 C 565.59 761.53 590.93 780.73 607.75 764.75 C 619.15 751.02 622.16 732.30 635.75 719.75 C 649.89 702.86 673.76 716.38 678.77 734.23 C 686.30 752.15 686.76 775.89 673.25 791.25 C 655.97 801.21 636.56 784.35 620.00 779.00
C 612.12 792.97 596.85 805.45 579.98 800.02 C 540.46 789.68 550.68 738.86 547.00 707.00 C 545.67 687.82 545.42 668.34 541.07 649.93 C 532.42 635.22 542.76 617.09 555.00 609.00
M 716.00 663.00 
C 718.19 688.58 723.01 713.55 722.00 740.00 C 724.83 761.77 720.51 787.99 703.00 802.00
C 704.44 773.11 703.68 742.76 699.00 714.00 C 700.35 679.68 676.83 636.62 707.08 610.08 C 713.01 614.66 711.55 626.06 716.31 632.69 C 719.89 639.93 723.73 647.19 726.33 654.67 C 732.74 664.27 723.28 672.31 716.00 663.00
M 325.00 661.00 
C 322.05 666.71 317.62 679.82 309.31 675.69 C 302.80 671.29 296.67 665.81 290.00 662.00
C 292.78 653.97 298.38 646.64 303.75 639.75 C 312.54 638.17 319.44 647.76 327.00 651.00
C 330.64 645.43 334.90 630.75 343.75 638.25 C 348.49 644.70 361.47 645.82 360.67 654.67 C 355.31 660.60 353.13 670.33 345.97 673.97 C 338.74 670.05 332.93 663.02 325.00 661.00
M 522.00 649.00 
C 515.14 671.55 484.12 670.92 466.00 681.00
C 466.46 668.12 479.88 663.96 490.07 661.07 C 500.96 657.78 510.34 650.26 522.00 649.00
M 677.00 660.00 
C 675.83 680.47 649.76 679.99 636.77 689.77 C 619.37 695.05 604.23 705.58 587.00 711.00
C 587.66 690.67 612.36 688.17 626.67 680.67 C 643.40 673.59 659.66 665.43 677.00 660.00
M 400.00 675.00 
C 398.02 686.13 387.41 696.54 392.32 708.68 C 397.03 716.50 400.71 705.86 406.00 706.00
C 411.03 722.90 382.58 731.99 383.00 712.00 C 382.22 697.99 389.89 683.50 400.00 675.00
M 533.00 784.00 
C 531.19 809.12 497.76 814.66 477.78 820.78 C 468.28 821.74 458.97 824.52 449.33 823.67 C 448.08 816.71 463.32 818.07 468.69 814.69 C 491.27 806.91 512.10 795.15 533.00 784.00
M 733.00 828.00 
C 729.49 848.45 703.27 843.63 690.00 855.00
C 688.58 848.46 696.61 845.66 697.00 840.00
C 679.10 832.44 699.45 803.82 715.00 807.00 C 725.40 805.91 723.33 827.24 714.75 822.24 C 707.79 814.33 692.60 825.78 706.08 829.92 C 714.83 835.35 724.35 829.52 733.00 828.00 Z"/>
</g>
<g fill="None" fill-opacity="0.0" stroke="#FEFFFF" stroke-opacity="0.95" stroke-width="0.3"><path d="
M 210.00 439.00 
C 211.73 395.72 226.85 355.33 247.08 318.08 C 312.93 197.89 468.32 138.49 596.32 186.68 C 606.05 188.19 614.50 198.56 624.75 194.75 C 635.12 184.53 616.44 179.42 609.22 176.78 C 499.90 133.69 367.69 160.26 285.75 245.75 C 176.53 348.16 165.02 530.32 252.75 648.25 C 259.31 652.54 264.04 669.72 271.74 664.74 C 281.18 656.64 271.70 649.16 266.25 641.75 C 261.19 633.86 254.41 626.45 251.00 618.00
C 291.00 618.00 331.00 618.00 371.00 618.00
C 373.26 610.67 366.32 610.21 361.00 611.00
C 359.36 588.16 369.34 553.37 341.03 545.03 C 314.29 556.27 325.01 588.79 323.00 612.00
C 320.00 612.00 317.00 612.00 314.00 612.00
C 311.10 591.35 321.67 564.99 304.25 549.75 C 286.20 535.49 272.12 568.33 277.00 584.00 C 274.44 592.79 283.65 613.63 269.00 611.00
C 266.23 591.16 276.20 565.82 260.08 550.92 C 243.55 534.39 228.18 564.08 231.00 579.00
C 226.73 571.36 225.00 561.94 221.00 554.00 C 221.48 546.10 209.03 530.00 225.00 533.00 C 270.52 532.33 317.24 534.33 362.00 532.00
C 354.94 525.41 345.24 527.03 336.00 527.00 C 322.83 532.18 323.14 511.98 336.00 517.00 C 349.49 521.04 352.13 511.29 350.00 500.00 C 350.88 470.13 351.28 440.16 351.00 410.00 C 354.73 402.20 355.94 393.42 355.00 384.00
C 369.23 382.24 358.41 373.38 350.70 371.31 C 339.90 369.20 336.98 360.31 339.01 350.01 C 340.01 343.67 350.01 329.26 337.00 330.00
C 337.65 321.43 336.53 313.12 335.22 305.22 C 339.16 290.00 324.21 278.32 325.68 263.34 C 317.83 264.47 325.23 278.05 318.77 282.77 C 309.48 295.83 313.56 313.48 312.00 329.00
C 298.87 328.13 306.85 342.81 310.00 349.00 C 311.75 359.42 309.75 369.39 298.23 371.23 C 290.19 373.17 279.95 382.83 294.22 383.78 C 296.29 404.61 299.46 425.07 298.00 447.00
C 287.24 438.10 276.45 428.66 263.07 423.93 C 252.30 423.29 251.90 414.13 252.97 405.03 C 247.29 391.74 244.01 410.44 245.99 416.99 C 244.49 424.55 233.23 423.17 228.08 428.08 C 222.09 431.75 215.27 433.99 210.00 439.00
M 325.00 286.00 
C 330.45 294.14 328.19 304.17 329.00 313.00
C 326.00 313.00 323.00 313.00 320.00 313.00
C 321.81 304.25 317.20 292.78 325.00 286.00
M 330.00 320.00 
C 330.00 323.00 330.00 326.00 330.00 329.00
C 326.33 329.00 322.67 329.00 319.00 329.00
C 319.00 326.00 319.00 323.00 319.00 320.00
C 322.67 320.00 326.33 320.00 330.00 320.00
M 336.00 337.00 
C 334.27 344.91 313.74 344.95 312.00 337.00
C 320.00 337.00 328.00 337.00 336.00 337.00
M 332.00 350.00 
C 332.00 354.33 332.00 358.67 332.00 363.00
C 327.00 363.00 322.00 363.00 317.00 363.00
C 317.00 358.67 317.00 354.33 317.00 350.00
C 322.00 350.00 327.00 350.00 332.00 350.00
M 343.00 376.00 
C 330.67 376.00 318.33 376.00 306.00 376.00
C 315.63 367.70 333.69 366.89 343.00 376.00
M 306.00 384.00 
C 306.00 389.00 306.00 394.00 306.00 399.00
C 299.75 400.53 299.64 382.49 306.00 384.00
M 315.00 399.00 
C 315.40 393.80 314.66 388.95 314.00 384.00
C 324.00 379.99 322.54 400.29 315.00 399.00
M 335.00 399.00 
C 324.68 402.05 328.73 390.09 328.00 384.00
C 338.01 381.34 334.44 393.17 335.00 399.00
M 347.00 384.00 
C 347.00 389.00 347.00 394.00 347.00 399.00
C 339.33 401.75 339.23 381.27 347.00 384.00
M 344.00 407.00 
C 344.00 418.67 344.00 430.33 344.00 442.00
C 331.00 442.00 318.00 442.00 305.00 442.00
C 305.00 430.33 305.00 418.67 305.00 407.00
C 318.00 407.00 331.00 407.00 344.00 407.00
M 302.00 486.00 
C 279.67 486.00 257.33 486.00 235.00 486.00 C 226.58 483.64 206.77 492.33 209.00 478.00 C 210.58 467.86 205.67 455.19 211.75 446.75 C 224.89 437.43 240.90 425.03 257.07 428.93 C 281.40 437.23 304.52 457.73 302.00 486.00
M 344.00 450.00 
C 344.00 467.00 344.00 484.00 344.00 501.00 C 346.98 511.85 333.81 509.59 327.00 510.00
C 330.98 497.39 319.20 496.68 310.00 498.00
C 312.97 480.80 304.18 466.66 305.00 450.00
C 318.00 450.00 331.00 450.00 344.00 450.00
M 302.00 498.00 
C 283.80 493.39 291.54 515.56 290.00 526.00
C 265.01 525.48 239.38 527.04 214.78 525.22 C 212.46 514.70 210.96 503.72 209.00 493.00
C 230.16 490.67 252.42 492.66 274.00 492.00 C 282.48 494.62 301.43 485.95 302.00 498.00
M 320.00 526.00 
C 312.67 526.00 305.33 526.00 298.00 526.00
C 298.00 519.00 298.00 512.00 298.00 505.00
C 304.86 505.22 311.93 504.56 318.67 505.33 C 321.67 511.20 319.18 519.28 320.00 526.00
M 262.00 611.00 
C 242.80 616.75 236.64 595.11 239.00 580.00 C 233.90 568.12 248.50 541.23 258.25 559.75 C 264.26 575.13 261.05 593.93 262.00 611.00
M 307.00 611.00 
C 299.67 611.00 292.33 611.00 285.00 611.00
C 288.47 592.13 275.98 564.01 296.03 553.03 C 315.82 564.59 303.65 591.94 307.00 611.00
M 354.00 611.00 
C 346.03 609.09 327.68 616.57 330.00 603.00 C 330.22 592.14 329.56 581.07 330.33 570.33 C 330.10 563.49 337.10 551.09 344.74 554.26 C 360.47 568.02 351.46 592.12 354.00 611.00 Z"/>
</g>
<g fill="None" fill-opacity="0.0" stroke="#FEFFFF" stroke-opacity="1.00" stroke-width="0.3"><path d="
M 681.00 266.00 
C 700.62 258.51 719.49 248.92 738.92 240.92 C 748.52 238.11 761.71 230.92 749.92 221.08 C 740.16 203.81 727.56 187.84 718.99 170.01 C 714.91 155.85 702.32 173.11 695.25 176.25 C 688.06 183.04 679.70 187.91 672.23 194.23 C 664.32 198.96 657.14 208.97 648.74 210.26 C 636.89 203.78 634.83 222.08 625.08 225.08 C 603.64 235.88 577.94 231.34 555.23 238.23 C 531.81 256.68 509.27 278.22 500.92 306.92 C 494.65 314.85 493.63 331.52 507.00 332.00
C 498.37 348.03 486.57 363.25 477.25 379.25 C 468.63 393.42 447.35 413.47 464.77 429.23 C 481.55 433.76 496.62 460.96 515.25 445.25 C 526.76 430.71 534.92 414.34 545.25 399.25 C 553.82 382.23 571.11 368.13 569.00 347.00
C 587.37 349.56 592.81 326.71 607.30 320.30 C 620.53 312.94 634.53 305.44 642.70 291.70 C 649.71 272.00 685.43 290.67 681.00 266.00 Z"/>
</g>
<g fill="None" fill-opacity="0.0" stroke="#FEFFFF" stroke-opacity="0.02" stroke-width="0.3"><path d="
M 325.00 286.00 
C 317.20 292.78 321.81 304.25 320.00 313.00
C 323.00 313.00 326.00 313.00 329.00 313.00
C 328.19 304.17 330.45 294.14 325.00 286.00 Z"/>
</g>
<g fill="None" fill-opacity="0.0" stroke="#FEFFFF" stroke-opacity="0.95" stroke-width="0.3"><path d="
M 805.00 326.00 
C 784.79 312.56 762.79 299.66 741.00 289.00
C 741.50 313.62 739.90 338.78 742.00 363.00
C 750.13 357.47 756.89 349.86 764.92 344.08 C 785.60 384.75 794.14 433.00 792.00 480.00
C 781.33 480.00 770.67 480.00 760.00 480.00 C 746.44 482.69 753.85 464.80 752.03 457.03 C 758.10 451.66 758.37 439.02 747.00 441.00
C 745.02 419.75 727.76 402.73 708.23 395.77 C 697.17 394.87 703.73 382.44 699.03 377.03 C 689.99 379.02 700.58 395.39 689.23 395.23 C 670.51 403.21 651.84 419.33 651.00 441.00
C 644.48 438.92 636.58 446.44 641.75 452.25 C 651.46 461.22 641.55 479.32 650.00 490.00
C 652.34 480.99 650.32 469.84 651.01 460.01 C 654.32 452.04 668.88 456.45 677.00 455.00
C 677.00 470.00 677.00 485.00 677.00 500.00 C 682.70 520.93 649.55 500.01 650.00 517.00
C 679.68 521.01 703.47 504.22 730.00 497.00
C 728.74 506.69 732.57 518.85 728.00 527.00 C 706.67 527.00 685.33 527.00 664.00 527.00 C 655.44 528.07 643.77 523.39 639.00 533.00
C 687.33 533.00 735.67 533.00 784.00 533.00
C 783.52 539.99 780.93 546.41 779.00 553.00
C 772.21 549.05 762.93 538.32 756.25 549.25 C 735.90 563.41 748.44 591.09 745.00 612.00
C 732.26 615.69 728.59 607.26 731.00 596.00 C 731.00 586.00 731.00 576.00 731.00 566.00 C 730.57 552.31 709.96 536.83 700.25 552.25 C 685.03 564.27 694.73 586.23 692.00 603.00
C 702.11 599.66 696.62 587.00 698.00 579.00 C 692.87 564.23 709.69 542.31 721.75 559.25 C 728.44 565.63 723.46 576.62 725.00 585.00 C 724.98 594.01 724.90 603.97 725.33 612.33 C 724.22 623.15 741.15 615.90 748.00 618.00
C 747.27 625.40 740.39 630.10 737.75 636.75 C 731.95 641.66 739.60 649.77 743.00 654.00
C 787.49 594.46 810.74 520.98 805.00 445.00 C 804.20 406.24 790.86 370.38 779.00 335.00
C 787.78 332.25 796.51 329.57 805.00 326.00
M 739.00 439.00 
C 712.51 436.38 685.49 436.68 659.00 439.00
C 659.49 418.00 680.95 404.67 699.00 400.00 C 717.19 404.66 737.12 418.86 739.00 439.00
M 749.00 448.00 
C 741.02 452.76 727.58 445.77 717.00 448.00 C 693.86 446.79 669.78 449.69 648.00 449.00
C 680.06 442.72 716.19 444.44 749.00 448.00
M 713.00 456.00 
C 712.44 469.03 715.21 481.66 713.67 494.67 C 704.01 499.00 694.24 503.02 684.00 506.00
C 684.00 489.33 684.00 472.67 684.00 456.00
C 693.67 456.00 703.33 456.00 713.00 456.00
M 746.00 457.00 
C 745.20 464.45 747.62 473.00 744.74 479.74 C 736.18 479.33 745.41 465.54 737.75 462.25 C 731.63 458.47 725.74 464.58 724.08 470.08 C 722.26 476.83 727.55 488.43 721.00 492.00
C 721.00 480.00 721.00 468.00 721.00 456.00
C 729.60 455.28 737.42 457.62 746.00 457.00
M 734.00 469.00 
C 734.13 472.09 737.32 478.62 732.00 479.00
C 732.92 475.96 729.92 469.69 734.00 469.00
M 791.00 487.00 
C 789.61 496.02 789.99 505.60 787.22 514.22 C 789.45 527.40 778.05 527.01 768.00 526.00 C 757.33 526.00 746.67 526.00 736.00 526.00
C 736.00 513.00 736.00 500.00 736.00 487.00
C 754.33 487.00 772.67 487.00 791.00 487.00
M 753.00 610.00 
C 752.35 594.41 749.19 574.58 754.77 559.77 C 763.53 542.65 782.90 562.31 770.69 573.70 C 766.16 586.20 760.73 599.19 753.00 610.00 Z"/>
</g>
<g fill="None" fill-opacity="0.0" stroke="#FEFFFF" stroke-opacity="0.03" stroke-width="0.3"><path d="
M 330.00 320.00 
C 326.33 320.00 322.67 320.00 319.00 320.00
C 319.00 323.00 319.00 326.00 319.00 329.00
C 322.67 329.00 326.33 329.00 330.00 329.00
C 330.00 326.00 330.00 323.00 330.00 320.00 Z"/>
</g>
<g fill="None" fill-opacity="0.0" stroke="#FEFFFF" stroke-opacity="0.02" stroke-width="0.3"><path d="
M 336.00 337.00 
C 328.00 337.00 320.00 337.00 312.00 337.00
C 313.74 344.95 334.27 344.91 336.00 337.00 Z"/>
</g>
<g fill="None" fill-opacity="0.0" stroke="#FEFFFF" stroke-opacity="0.02" stroke-width="0.3"><path d="
M 332.00 350.00 
C 327.00 350.00 322.00 350.00 317.00 350.00
C 317.00 354.33 317.00 358.67 317.00 363.00
C 322.00 363.00 327.00 363.00 332.00 363.00
C 332.00 358.67 332.00 354.33 332.00 350.00 Z"/>
</g>
<g fill="None" fill-opacity="0.0" stroke="#FEFFFF" stroke-opacity="0.02" stroke-width="0.3"><path d="
M 343.00 376.00 
C 333.69 366.89 315.63 367.70 306.00 376.00
C 318.33 376.00 330.67 376.00 343.00 376.00 Z"/>
</g>
<g fill="None" fill-opacity="0.0" stroke="#FEFFFF" stroke-opacity="0.03" stroke-width="0.3"><path d="
M 306.00 384.00 
C 299.64 382.49 299.75 400.53 306.00 399.00
C 306.00 394.00 306.00 389.00 306.00 384.00 Z"/>
</g>
<g fill="None" fill-opacity="0.0" stroke="#FEFFFF" stroke-opacity="0.02" stroke-width="0.3"><path d="
M 315.00 399.00 
C 322.54 400.29 324.00 379.99 314.00 384.00
C 314.66 388.95 315.40 393.80 315.00 399.00 Z"/>
</g>
<g fill="None" fill-opacity="0.0" stroke="#FEFFFF" stroke-opacity="0.05" stroke-width="0.3"><path d="
M 335.00 399.00 
C 334.44 393.17 338.01 381.34 328.00 384.00
C 328.73 390.09 324.68 402.05 335.00 399.00 Z"/>
</g>
<g fill="None" fill-opacity="0.0" stroke="#FEFFFF" stroke-opacity="0.02" stroke-width="0.3"><path d="
M 347.00 384.00 
C 339.23 381.27 339.33 401.75 347.00 399.00
C 347.00 394.00 347.00 389.00 347.00 384.00 Z"/>
</g>
<g fill="None" fill-opacity="0.0" stroke="#FEFFFF" stroke-opacity="1.00" stroke-width="0.3"><path d="
M 454.00 459.00 
C 448.03 442.88 441.99 421.49 422.23 416.77 C 413.21 412.25 415.61 399.95 409.69 393.31 C 400.11 389.73 390.56 396.73 381.75 399.75 C 374.03 405.28 379.21 419.92 386.00 424.00
C 385.92 434.31 377.93 442.04 380.00 453.00 C 379.94 462.83 385.42 470.99 388.00 480.00
C 377.14 478.72 362.28 480.14 359.78 492.78 C 358.36 502.80 356.37 518.44 368.78 522.22 C 381.34 525.21 371.94 545.22 377.00 555.00 C 379.34 592.50 381.76 629.99 386.00 667.00
C 389.82 664.90 394.13 662.57 395.00 658.00
C 398.89 659.41 402.92 659.87 407.00 661.00
C 405.18 642.47 401.67 621.89 414.68 606.68 C 418.78 588.33 449.70 584.19 449.02 606.98 C 449.60 625.04 470.91 634.30 469.00 653.00
C 482.53 650.22 494.86 643.54 507.78 638.78 C 523.04 636.91 526.60 623.91 533.23 612.23 C 539.01 602.15 552.58 587.77 563.92 599.08 C 574.44 608.87 572.99 625.68 576.02 638.98 C 578.93 654.34 578.32 670.59 581.00 686.00
C 590.95 682.28 599.94 676.46 609.92 672.92 C 620.04 666.00 614.34 649.24 617.00 638.00 C 620.69 599.97 622.45 561.00 626.33 523.33 C 652.73 520.97 642.23 470.74 615.00 481.00
C 614.68 470.90 612.97 461.07 607.00 453.00
C 611.02 448.52 626.22 439.53 616.00 435.00 C 606.78 433.55 600.43 425.39 590.25 425.75 C 578.28 416.10 581.91 439.49 583.00 446.00
C 574.87 451.00 568.92 446.84 567.25 437.75 C 556.47 425.72 534.35 433.63 532.26 448.26 C 532.57 458.45 524.71 462.21 515.01 460.01 C 507.42 460.50 505.96 471.24 499.00 473.00
C 493.53 466.37 486.73 460.56 480.75 454.25 C 472.22 447.57 461.80 455.40 454.00 459.00
M 508.00 480.00 
C 510.22 473.38 517.60 465.80 525.22 469.78 C 528.48 479.55 515.13 481.41 508.00 480.00 Z"/>
</g>
<g fill="None" fill-opacity="0.0" stroke="#FEFFFF" stroke-opacity="0.00" stroke-width="0.3"><path d="
M 739.00 439.00 
C 737.12 418.86 717.19 404.66 699.00 400.00 C 680.95 404.67 659.49 418.00 659.00 439.00
C 685.49 436.68 712.51 436.38 739.00 439.00 Z"/>
</g>
<g fill="None" fill-opacity="0.0" stroke="#FEFFFF" stroke-opacity="0.06" stroke-width="0.3"><path d="
M 344.00 407.00 
C 331.00 407.00 318.00 407.00 305.00 407.00
C 305.00 418.67 305.00 430.33 305.00 442.00
C 318.00 442.00 331.00 442.00 344.00 442.00
C 344.00 430.33 344.00 418.67 344.00 407.00
M 319.00 438.00 
C 306.21 435.24 318.44 404.54 330.75 418.25 C 335.49 423.28 334.80 432.74 332.74 438.74 C 325.01 437.83 331.98 425.84 326.25 421.75 C 317.49 419.62 318.77 432.03 319.00 438.00 Z"/>
</g>
<g fill="None" fill-opacity="0.0" stroke="#FEFFFF" stroke-opacity="0.98" stroke-width="0.3"><path d="
M 319.00 438.00 
C 318.77 432.03 317.49 419.62 326.25 421.75 C 331.98 425.84 325.01 437.83 332.74 438.74 C 334.80 432.74 335.49 423.28 330.75 418.25 C 318.44 404.54 306.21 435.24 319.00 438.00 Z"/>
</g>
<g fill="None" fill-opacity="0.0" stroke="#FEFFFF" stroke-opacity="0.01" stroke-width="0.3"><path d="
M 302.00 486.00 
C 304.52 457.73 281.40 437.23 257.07 428.93 C 240.90 425.03 224.89 437.43 211.75 446.75 C 205.67 455.19 210.58 467.86 209.00 478.00 C 206.77 492.33 226.58 483.64 235.00 486.00 C 257.33 486.00 279.67 486.00 302.00 486.00 Z"/>
</g>
<g fill="None" fill-opacity="0.0" stroke="#FEFFFF" stroke-opacity="0.05" stroke-width="0.3"><path d="
M 749.00 448.00 
C 716.19 444.44 680.06 442.72 648.00 449.00
C 669.78 449.69 693.86 446.79 717.00 448.00 C 727.58 445.77 741.02 452.76 749.00 448.00 Z"/>
</g>
<g fill="None" fill-opacity="0.0" stroke="#FEFFFF" stroke-opacity="0.00" stroke-width="0.3"><path d="
M 344.00 450.00 
C 331.00 450.00 318.00 450.00 305.00 450.00
C 304.18 466.66 312.97 480.80 310.00 498.00
C 319.20 496.68 330.98 497.39 327.00 510.00
C 333.81 509.59 346.98 511.85 344.00 501.00 C 344.00 484.00 344.00 467.00 344.00 450.00 Z"/>
</g>
<g fill="None" fill-opacity="0.0" stroke="#FEFFFF" stroke-opacity="0.06" stroke-width="0.3"><path d="
M 713.00 456.00 
C 703.33 456.00 693.67 456.00 684.00 456.00
C 684.00 472.67 684.00 489.33 684.00 506.00
C 694.24 503.02 704.01 499.00 713.67 494.67 C 715.21 481.66 712.44 469.03 713.00 456.00
M 702.00 461.00 
C 711.03 467.28 707.31 478.50 708.00 488.00 C 704.58 495.48 684.14 494.28 689.00 482.00 C 687.35 472.83 689.91 459.08 702.00 461.00 Z"/>
</g>
<g fill="None" fill-opacity="0.0" stroke="#FEFFFF" stroke-opacity="0.06" stroke-width="0.3"><path d="
M 746.00 457.00 
C 737.42 457.62 729.60 455.28 721.00 456.00
C 721.00 468.00 721.00 480.00 721.00 492.00
C 727.55 488.43 722.26 476.83 724.08 470.08 C 725.74 464.58 731.63 458.47 737.75 462.25 C 745.41 465.54 736.18 479.33 744.74 479.74 C 747.62 473.00 745.20 464.45 746.00 457.00 Z"/>
</g>
<g fill="None" fill-opacity="0.0" stroke="#FEFFFF" stroke-opacity="0.93" stroke-width="0.3"><path d="
M 702.00 461.00 
C 689.91 459.08 687.35 472.83 689.00 482.00 C 684.14 494.28 704.58 495.48 708.00 488.00 C 707.31 478.50 711.03 467.28 702.00 461.00
M 702.00 485.00 
C 692.47 487.54 696.30 473.98 696.78 468.78 C 704.39 467.00 701.38 479.99 702.00 485.00 Z"/>
</g>
<g fill="None" fill-opacity="0.0" stroke="#FEFFFF" stroke-opacity="0.89" stroke-width="0.3"><path d="
M 668.00 463.00 
C 656.34 459.74 654.92 472.69 656.00 481.00 C 651.07 492.48 666.15 495.97 672.00 489.00 C 670.89 480.32 675.05 469.63 668.00 463.00
M 664.00 485.00 
C 662.40 481.07 662.30 473.86 664.00 470.00
C 665.60 473.93 665.70 481.14 664.00 485.00 Z"/>
</g>
<g fill="None" fill-opacity="0.0" stroke="#FEFFFF" stroke-opacity="0.02" stroke-width="0.3"><path d="
M 702.00 485.00 
C 701.38 479.99 704.39 467.00 696.78 468.78 C 696.30 473.98 692.47 487.54 702.00 485.00 Z"/>
</g>
<g fill="None" fill-opacity="0.0" stroke="#FEFFFF" stroke-opacity="0.04" stroke-width="0.3"><path d="
M 508.00 480.00 
C 515.13 481.41 528.48 479.55 525.22 469.78 C 517.60 465.80 510.22 473.38 508.00 480.00 Z"/>
</g>
<g fill="None" fill-opacity="0.0" stroke="#FEFFFF" stroke-opacity="0.05" stroke-width="0.3"><path d="
M 734.00 469.00 
C 729.92 469.69 732.92 475.96 732.00 479.00
C 737.32 478.62 734.13 472.09 734.00 469.00 Z"/>
</g>
<g fill="None" fill-opacity="0.0" stroke="#FEFFFF" stroke-opacity="0.01" stroke-width="0.3"><path d="
M 664.00 485.00 
C 665.70 481.14 665.60 473.93 664.00 470.00
C 662.30 473.86 662.40 481.07 664.00 485.00 Z"/>
</g>
<g fill="None" fill-opacity="0.0" stroke="#FEFFFF" stroke-opacity="0.04" stroke-width="0.3"><path d="
M 791.00 487.00 
C 772.67 487.00 754.33 487.00 736.00 487.00
C 736.00 500.00 736.00 513.00 736.00 526.00
C 746.67 526.00 757.33 526.00 768.00 526.00 C 778.05 527.01 789.45 527.40 787.22 514.22 C 789.99 505.60 789.61 496.02 791.00 487.00
M 782.00 497.00 
C 784.45 501.75 787.39 517.32 779.33 516.67 C 775.95 512.26 773.97 497.63 782.00 497.00
M 752.00 498.00 
C 754.06 503.27 757.42 517.14 749.32 517.66 C 746.14 513.35 743.65 497.59 752.00 498.00
M 768.00 498.00 
C 768.69 502.99 772.59 518.97 763.78 516.22 C 761.41 511.57 758.54 496.18 768.00 498.00 Z"/>
</g>
<g fill="None" fill-opacity="0.0" stroke="#FEFFFF" stroke-opacity="0.05" stroke-width="0.3"><path d="
M 302.00 498.00 
C 301.43 485.95 282.48 494.62 274.00 492.00 C 252.42 492.66 230.16 490.67 209.00 493.00
C 210.96 503.72 212.46 514.70 214.78 525.22 C 239.38 527.04 265.01 525.48 290.00 526.00
C 291.54 515.56 283.80 493.39 302.00 498.00
M 243.00 499.00 
C 246.88 503.58 249.21 517.32 240.99 517.99 C 236.36 514.48 235.22 499.40 243.00 499.00
M 227.00 500.00 
C 227.96 504.53 231.14 519.32 222.78 516.22 C 219.86 511.72 219.08 499.15 227.00 500.00
M 260.00 500.00 
C 262.63 504.26 265.12 517.86 257.00 517.00 C 253.92 513.36 252.40 499.97 260.00 500.00
M 277.00 500.00 
C 279.79 504.33 281.76 517.74 274.32 517.66 C 270.99 513.85 268.95 499.15 277.00 500.00 Z"/>
</g>
<g fill="None" fill-opacity="0.0" stroke="#FEFFFF" stroke-opacity="0.94" stroke-width="0.3"><path d="
M 782.00 497.00 
C 773.97 497.63 775.95 512.26 779.33 516.67 C 787.39 517.32 784.45 501.75 782.00 497.00 Z"/>
</g>
<g fill="None" fill-opacity="0.0" stroke="#FEFFFF" stroke-opacity="0.96" stroke-width="0.3"><path d="
M 752.00 498.00 
C 743.65 497.59 746.14 513.35 749.32 517.66 C 757.42 517.14 754.06 503.27 752.00 498.00 Z"/>
</g>
<g fill="None" fill-opacity="0.0" stroke="#FEFFFF" stroke-opacity="0.96" stroke-width="0.3"><path d="
M 768.00 498.00 
C 758.54 496.18 761.41 511.57 763.78 516.22 C 772.59 518.97 768.69 502.99 768.00 498.00 Z"/>
</g>
<g fill="None" fill-opacity="0.0" stroke="#FEFFFF" stroke-opacity="0.92" stroke-width="0.3"><path d="
M 243.00 499.00 
C 235.22 499.40 236.36 514.48 240.99 517.99 C 249.21 517.32 246.88 503.58 243.00 499.00 Z"/>
</g>
<g fill="None" fill-opacity="0.0" stroke="#FEFFFF" stroke-opacity="0.98" stroke-width="0.3"><path d="
M 227.00 500.00 
C 219.08 499.15 219.86 511.72 222.78 516.22 C 231.14 519.32 227.96 504.53 227.00 500.00 Z"/>
</g>
<g fill="None" fill-opacity="0.0" stroke="#FEFFFF" stroke-opacity="0.98" stroke-width="0.3"><path d="
M 260.00 500.00 
C 252.40 499.97 253.92 513.36 257.00 517.00 C 265.12 517.86 262.63 504.26 260.00 500.00 Z"/>
</g>
<g fill="None" fill-opacity="0.0" stroke="#FEFFFF" stroke-opacity="0.98" stroke-width="0.3"><path d="
M 277.00 500.00 
C 268.95 499.15 270.99 513.85 274.32 517.66 C 281.76 517.74 279.79 504.33 277.00 500.00 Z"/>
</g>
<g fill="None" fill-opacity="0.0" stroke="#FEFFFF" stroke-opacity="0.02" stroke-width="0.3"><path d="
M 320.00 526.00 
C 319.18 519.28 321.67 511.20 318.67 505.33 C 311.93 504.56 304.86 505.22 298.00 505.00
C 298.00 512.00 298.00 519.00 298.00 526.00
C 305.33 526.00 312.67 526.00 320.00 526.00 Z"/>
</g>
<g fill="None" fill-opacity="0.0" stroke="#FEFFFF" stroke-opacity="0.98" stroke-width="0.3"><path d="
M 678.00 611.00 
C 677.95 595.36 678.10 579.71 677.93 564.07 C 674.94 555.08 662.68 540.20 652.75 547.75 C 631.79 558.64 640.95 585.42 639.00 605.00 C 643.08 616.47 625.36 607.43 629.00 618.00
C 640.00 618.00 651.00 618.00 662.00 618.00 C 670.35 616.30 685.50 622.96 687.00 611.00
C 684.00 611.00 681.00 611.00 678.00 611.00
M 661.00 552.00 
C 679.42 565.54 669.55 590.39 672.00 610.00 C 665.66 611.96 644.98 616.81 645.00 606.00 C 647.09 587.68 636.82 557.36 661.00 552.00 Z"/>
</g>
<g fill="None" fill-opacity="0.0" stroke="#FEFFFF" stroke-opacity="0.01" stroke-width="0.3"><path d="
M 262.00 611.00 
C 261.05 593.93 264.26 575.13 258.25 559.75 C 248.50 541.23 233.90 568.12 239.00 580.00 C 236.64 595.11 242.80 616.75 262.00 611.00 Z"/>
</g>
<g fill="None" fill-opacity="0.0" stroke="#FEFFFF" stroke-opacity="0.06" stroke-width="0.3"><path d="
M 661.00 552.00 
C 636.82 557.36 647.09 587.68 645.00 606.00 C 644.98 616.81 665.66 611.96 672.00 610.00 C 669.55 590.39 679.42 565.54 661.00 552.00 Z"/>
</g>
<g fill="None" fill-opacity="0.0" stroke="#FEFFFF" stroke-opacity="0.02" stroke-width="0.3"><path d="
M 753.00 610.00 
C 760.73 599.19 766.16 586.20 770.69 573.70 C 782.90 562.31 763.53 542.65 754.77 559.77 C 749.19 574.58 752.35 594.41 753.00 610.00 Z"/>
</g>
<g fill="None" fill-opacity="0.0" stroke="#FEFFFF" stroke-opacity="0.01" stroke-width="0.3"><path d="
M 307.00 611.00 
C 303.65 591.94 315.82 564.59 296.03 553.03 C 275.98 564.01 288.47 592.13 285.00 611.00
C 292.33 611.00 299.67 611.00 307.00 611.00 Z"/>
</g>
<g fill="None" fill-opacity="0.0" stroke="#FEFFFF" stroke-opacity="0.01" stroke-width="0.3"><path d="
M 354.00 611.00 
C 351.46 592.12 360.47 568.02 344.74 554.26 C 337.10 551.09 330.10 563.49 330.33 570.33 C 329.56 581.07 330.22 592.14 330.00 603.00 C 327.68 616.57 346.03 609.09 354.00 611.00 Z"/>
</g>
<g fill="None" fill-opacity="0.0" stroke="#FEFFFF" stroke-opacity="0.98" stroke-width="0.3"><path d="
M 434.00 606.00 
C 416.98 617.31 417.79 639.94 422.01 657.99 C 424.74 694.75 438.87 742.04 405.22 769.22 C 386.45 773.11 370.57 756.70 367.93 739.07 C 362.29 719.92 362.11 699.62 358.00 680.00
C 349.20 683.08 338.97 692.60 339.97 702.97 C 325.89 715.14 305.58 721.56 292.75 737.75 C 281.30 751.96 268.84 783.60 295.93 788.07 C 317.27 794.40 342.56 788.04 351.00 766.00
C 359.01 788.96 381.91 802.09 406.00 801.00 C 451.53 798.44 508.75 793.05 531.02 747.02 C 541.70 724.49 524.34 693.59 498.00 696.00 C 474.83 695.98 457.81 714.23 441.00 728.00
C 448.45 707.87 445.38 685.56 445.00 664.00
C 452.07 664.89 454.23 651.47 453.75 645.25 C 444.26 633.69 436.18 620.76 434.00 606.00
M 342.00 725.00 
C 341.42 734.35 353.08 748.87 343.30 754.31 C 333.43 761.13 319.49 759.31 307.99 758.01 C 293.53 754.60 309.11 742.57 315.74 739.74 C 324.88 735.59 332.22 727.72 342.00 725.00
M 426.00 769.00 
C 441.52 749.32 461.94 726.82 488.00 725.00 C 499.06 723.02 520.47 736.56 511.75 747.75 C 484.94 760.26 456.58 769.39 426.00 769.00 Z"/>
</g>
<g fill="None" fill-opacity="0.0" stroke="#FEFFFF" stroke-opacity="0.99" stroke-width="0.3"><path d="
M 555.00 609.00 
C 542.76 617.09 532.42 635.22 541.07 649.93 C 545.42 668.34 545.67 687.82 547.00 707.00 C 550.68 738.86 540.46 789.68 579.98 800.02 C 596.85 805.45 612.12 792.97 620.00 779.00
C 636.56 784.35 655.97 801.21 673.25 791.25 C 686.76 775.89 686.30 752.15 678.77 734.23 C 673.76 716.38 649.89 702.86 635.75 719.75 C 622.16 732.30 619.15 751.02 607.75 764.75 C 590.93 780.73 565.59 761.53 569.00 741.00 C 564.34 696.98 568.19 650.60 555.00 609.00
M 662.00 764.00 
C 653.33 761.98 645.84 757.02 637.77 753.23 C 626.88 749.27 642.75 736.29 649.22 740.78 C 657.07 745.50 662.33 754.83 662.00 764.00 Z"/>
</g>
<g fill="None" fill-opacity="0.0" stroke="#FEFFFF" stroke-opacity="0.99" stroke-width="0.3"><path d="
M 716.00 663.00 
C 723.28 672.31 732.74 664.27 726.33 654.67 C 723.73 647.19 719.89 639.93 716.31 632.69 C 711.55 626.06 713.01 614.66 707.08 610.08 C 676.83 636.62 700.35 679.68 699.00 714.00 C 703.68 742.76 704.44 773.11 703.00 802.00
C 720.51 787.99 724.83 761.77 722.00 740.00 C 723.01 713.55 718.19 688.58 716.00 663.00 Z"/>
</g>
<g fill="None" fill-opacity="0.0" stroke="#FEFFFF" stroke-opacity="0.99" stroke-width="0.3"><path d="
M 325.00 661.00 
C 332.93 663.02 338.74 670.05 345.97 673.97 C 353.13 670.33 355.31 660.60 360.67 654.67 C 361.47 645.82 348.49 644.70 343.75 638.25 C 334.90 630.75 330.64 645.43 327.00 651.00
C 319.44 647.76 312.54 638.17 303.75 639.75 C 298.38 646.64 292.78 653.97 290.00 662.00
C 296.67 665.81 302.80 671.29 309.31 675.69 C 317.62 679.82 322.05 666.71 325.00 661.00 Z"/>
</g>
<g fill="None" fill-opacity="0.0" stroke="#FEFFFF" stroke-opacity="0.97" stroke-width="0.3"><path d="
M 522.00 649.00 
C 510.34 650.26 500.96 657.78 490.07 661.07 C 479.88 663.96 466.46 668.12 466.00 681.00
C 484.12 670.92 515.14 671.55 522.00 649.00 Z"/>
</g>
<g fill="None" fill-opacity="0.0" stroke="#FEFFFF" stroke-opacity="0.98" stroke-width="0.3"><path d="
M 677.00 660.00 
C 659.66 665.43 643.40 673.59 626.67 680.67 C 612.36 688.17 587.66 690.67 587.00 711.00
C 604.23 705.58 619.37 695.05 636.77 689.77 C 649.76 679.99 675.83 680.47 677.00 660.00 Z"/>
</g>
<g fill="None" fill-opacity="0.0" stroke="#FEFFFF" stroke-opacity="0.97" stroke-width="0.3"><path d="
M 400.00 675.00 
C 389.89 683.50 382.22 697.99 383.00 712.00 C 382.58 731.99 411.03 722.90 406.00 706.00
C 400.71 705.86 397.03 716.50 392.32 708.68 C 387.41 696.54 398.02 686.13 400.00 675.00 Z"/>
</g>
<g fill="None" fill-opacity="0.0" stroke="#FEFFFF" stroke-opacity="0.01" stroke-width="0.3"><path d="
M 342.00 725.00 
C 332.22 727.72 324.88 735.59 315.74 739.74 C 309.11 742.57 293.53 754.60 307.99 758.01 C 319.49 759.31 333.43 761.13 343.30 754.31 C 353.08 748.87 341.42 734.35 342.00 725.00 Z"/>
</g>
<g fill="None" fill-opacity="0.0" stroke="#FEFFFF" stroke-opacity="0.01" stroke-width="0.3"><path d="
M 426.00 769.00 
C 456.58 769.39 484.94 760.26 511.75 747.75 C 520.47 736.56 499.06 723.02 488.00 725.00 C 461.94 726.82 441.52 749.32 426.00 769.00 Z"/>
</g>
<g fill="None" fill-opacity="0.0" stroke="#FEFFFF" stroke-opacity="0.03" stroke-width="0.3"><path d="
M 662.00 764.00 
C 662.33 754.83 657.07 745.50 649.22 740.78 C 642.75 736.29 626.88 749.27 637.77 753.23 C 645.84 757.02 653.33 761.98 662.00 764.00 Z"/>
</g>
<g fill="None" fill-opacity="0.0" stroke="#FEFFFF" stroke-opacity="0.98" stroke-width="0.3"><path d="
M 533.00 784.00 
C 512.10 795.15 491.27 806.91 468.69 814.69 C 463.32 818.07 448.08 816.71 449.33 823.67 C 458.97 824.52 468.28 821.74 477.78 820.78 C 497.76 814.66 531.19 809.12 533.00 784.00 Z"/>
</g>
<g fill="None" fill-opacity="0.0" stroke="#FEFFFF" stroke-opacity="0.98" stroke-width="0.3"><path d="
M 733.00 828.00 
C 724.35 829.52 714.83 835.35 706.08 829.92 C 692.60 825.78 707.79 814.33 714.75 822.24 C 723.33 827.24 725.40 805.91 715.00 807.00 C 699.45 803.82 679.10 832.44 697.00 840.00
C 696.61 845.66 688.58 848.46 690.00 855.00
C 703.27 843.63 729.49 848.45 733.00 828.00 Z"/>
</g>
<g fill="#FEFFFF" fill-opacity="0.01" stroke="None">
<path d="
M 0.00 1000.00 
L 1000.00 1000.00
L 1000.00 0.00
L 0.00 0.00
L 0.00 1000.00
M 210.00 439.00 
C 215.27 433.99 222.09 431.75 228.08 428.08 C 233.23 423.17 244.49 424.55 245.99 416.99 C 244.01 410.44 247.29 391.74 252.97 405.03 C 251.90 414.13 252.30 423.29 263.07 423.93 C 276.45 428.66 287.24 438.10 298.00 447.00
C 299.46 425.07 296.29 404.61 294.22 383.78 C 279.95 382.83 290.19 373.17 298.23 371.23 C 309.75 369.39 311.75 359.42 310.00 349.00 C 306.85 342.81 298.87 328.13 312.00 329.00
C 313.56 313.48 309.48 295.83 318.77 282.77 C 325.23 278.05 317.83 264.47 325.68 263.34 C 324.21 278.32 339.16 290.00 335.22 305.22 C 336.53 313.12 337.65 321.43 337.00 330.00
C 350.01 329.26 340.01 343.67 339.01 350.01 C 336.98 360.31 339.90 369.20 350.70 371.31 C 358.41 373.38 369.23 382.24 355.00 384.00
C 355.94 393.42 354.73 402.20 351.00 410.00 C 351.28 440.16 350.88 470.13 350.00 500.00 C 352.13 511.29 349.49 521.04 336.00 517.00 C 323.14 511.98 322.83 532.18 336.00 527.00 C 345.24 527.03 354.94 525.41 362.00 532.00
C 317.24 534.33 270.52 532.33 225.00 533.00 C 209.03 530.00 221.48 546.10 221.00 554.00 C 225.00 561.94 226.73 571.36 231.00 579.00
C 228.18 564.08 243.55 534.39 260.08 550.92 C 276.20 565.82 266.23 591.16 269.00 611.00
C 283.65 613.63 274.44 592.79 277.00 584.00 C 272.12 568.33 286.20 535.49 304.25 549.75 C 321.67 564.99 311.10 591.35 314.00 612.00
C 317.00 612.00 320.00 612.00 323.00 612.00
C 325.01 588.79 314.29 556.27 341.03 545.03 C 369.34 553.37 359.36 588.16 361.00 611.00
C 366.32 610.21 373.26 610.67 371.00 618.00
C 331.00 618.00 291.00 618.00 251.00 618.00
C 254.41 626.45 261.19 633.86 266.25 641.75 C 271.70 649.16 281.18 656.64 271.74 664.74 C 264.04 669.72 259.31 652.54 252.75 648.25 C 165.02 530.32 176.53 348.16 285.75 245.75 C 367.69 160.26 499.90 133.69 609.22 176.78 C 616.44 179.42 635.12 184.53 624.75 194.75 C 614.50 198.56 606.05 188.19 596.32 186.68 C 468.32 138.49 312.93 197.89 247.08 318.08 C 226.85 355.33 211.73 395.72 210.00 439.00
M 681.00 266.00 
C 685.43 290.67 649.71 272.00 642.70 291.70 C 634.53 305.44 620.53 312.94 607.30 320.30 C 592.81 326.71 587.37 349.56 569.00 347.00
C 571.11 368.13 553.82 382.23 545.25 399.25 C 534.92 414.34 526.76 430.71 515.25 445.25 C 496.62 460.96 481.55 433.76 464.77 429.23 C 447.35 413.47 468.63 393.42 477.25 379.25 C 486.57 363.25 498.37 348.03 507.00 332.00
C 493.63 331.52 494.65 314.85 500.92 306.92 C 509.27 278.22 531.81 256.68 555.23 238.23 C 577.94 231.34 603.64 235.88 625.08 225.08 C 634.83 222.08 636.89 203.78 648.74 210.26 C 657.14 208.97 664.32 198.96 672.23 194.23 C 679.70 187.91 688.06 183.04 695.25 176.25 C 702.32 173.11 714.91 155.85 718.99 170.01 C 727.56 187.84 740.16 203.81 749.92 221.08 C 761.71 230.92 748.52 238.11 738.92 240.92 C 719.49 248.92 700.62 258.51 681.00 266.00
M 805.00 326.00 
C 796.51 329.57 787.78 332.25 779.00 335.00
C 790.86 370.38 804.20 406.24 805.00 445.00 C 810.74 520.98 787.49 594.46 743.00 654.00
C 739.60 649.77 731.95 641.66 737.75 636.75 C 740.39 630.10 747.27 625.40 748.00 618.00
C 741.15 615.90 724.22 623.15 725.33 612.33 C 724.90 603.97 724.98 594.01 725.00 585.00 C 723.46 576.62 728.44 565.63 721.75 559.25 C 709.69 542.31 692.87 564.23 698.00 579.00 C 696.62 587.00 702.11 599.66 692.00 603.00
C 694.73 586.23 685.03 564.27 700.25 552.25 C 709.96 536.83 730.57 552.31 731.00 566.00 C 731.00 576.00 731.00 586.00 731.00 596.00 C 728.59 607.26 732.26 615.69 745.00 612.00
C 748.44 591.09 735.90 563.41 756.25 549.25 C 762.93 538.32 772.21 549.05 779.00 553.00
C 780.93 546.41 783.52 539.99 784.00 533.00
C 735.67 533.00 687.33 533.00 639.00 533.00
C 643.77 523.39 655.44 528.07 664.00 527.00 C 685.33 527.00 706.67 527.00 728.00 527.00 C 732.57 518.85 728.74 506.69 730.00 497.00
C 703.47 504.22 679.68 521.01 650.00 517.00
C 649.55 500.01 682.70 520.93 677.00 500.00 C 677.00 485.00 677.00 470.00 677.00 455.00
C 668.88 456.45 654.32 452.04 651.01 460.01 C 650.32 469.84 652.34 480.99 650.00 490.00
C 641.55 479.32 651.46 461.22 641.75 452.25 C 636.58 446.44 644.48 438.92 651.00 441.00
C 651.84 419.33 670.51 403.21 689.23 395.23 C 700.58 395.39 689.99 379.02 699.03 377.03 C 703.73 382.44 697.17 394.87 708.23 395.77 C 727.76 402.73 745.02 419.75 747.00 441.00
C 758.37 439.02 758.10 451.66 752.03 457.03 C 753.85 464.80 746.44 482.69 760.00 480.00 C 770.67 480.00 781.33 480.00 792.00 480.00
C 794.14 433.00 785.60 384.75 764.92 344.08 C 756.89 349.86 750.13 357.47 742.00 363.00
C 739.90 338.78 741.50 313.62 741.00 289.00
C 762.79 299.66 784.79 312.56 805.00 326.00
M 454.00 459.00 
C 461.80 455.40 472.22 447.57 480.75 454.25 C 486.73 460.56 493.53 466.37 499.00 473.00
C 505.96 471.24 507.42 460.50 515.01 460.01 C 524.71 462.21 532.57 458.45 532.26 448.26 C 534.35 433.63 556.47 425.72 567.25 437.75 C 568.92 446.84 574.87 451.00 583.00 446.00
C 581.91 439.49 578.28 416.10 590.25 425.75 C 600.43 425.39 606.78 433.55 616.00 435.00 C 626.22 439.53 611.02 448.52 607.00 453.00
C 612.97 461.07 614.68 470.90 615.00 481.00
C 642.23 470.74 652.73 520.97 626.33 523.33 C 622.45 561.00 620.69 599.97 617.00 638.00 C 614.34 649.24 620.04 666.00 609.92 672.92 C 599.94 676.46 590.95 682.28 581.00 686.00
C 578.32 670.59 578.93 654.34 576.02 638.98 C 572.99 625.68 574.44 608.87 563.92 599.08 C 552.58 587.77 539.01 602.15 533.23 612.23 C 526.60 623.91 523.04 636.91 507.78 638.78 C 494.86 643.54 482.53 650.22 469.00 653.00
C 470.91 634.30 449.60 625.04 449.02 606.98 C 449.70 584.19 418.78 588.33 414.68 606.68 C 401.67 621.89 405.18 642.47 407.00 661.00
C 402.92 659.87 398.89 659.41 395.00 658.00
C 394.13 662.57 389.82 664.90 386.00 667.00
C 381.76 629.99 379.34 592.50 377.00 555.00 C 371.94 545.22 381.34 525.21 368.78 522.22 C 356.37 518.44 358.36 502.80 359.78 492.78 C 362.28 480.14 377.14 478.72 388.00 480.00
C 385.42 470.99 379.94 462.83 380.00 453.00 C 377.93 442.04 385.92 434.31 386.00 424.00
C 379.21 419.92 374.03 405.28 381.75 399.75 C 390.56 396.73 400.11 389.73 409.69 393.31 C 415.61 399.95 413.21 412.25 422.23 416.77 C 441.99 421.49 448.03 442.88 454.00 459.00
M 668.00 463.00 
C 675.05 469.63 670.89 480.32 672.00 489.00 C 666.15 495.97 651.07 492.48 656.00 481.00 C 654.92 472.69 656.34 459.74 668.00 463.00
M 678.00 611.00 
C 681.00 611.00 684.00 611.00 687.00 611.00
C 685.50 622.96 670.35 616.30 662.00 618.00 C 651.00 618.00 640.00 618.00 629.00 618.00
C 625.36 607.43 643.08 616.47 639.00 605.00 C 640.95 585.42 631.79 558.64 652.75 547.75 C 662.68 540.20 674.94 555.08 677.93 564.07 C 678.10 579.71 677.95 595.36 678.00 611.00
M 434.00 606.00 
C 436.18 620.76 444.26 633.69 453.75 645.25 C 454.23 651.47 452.07 664.89 445.00 664.00
C 445.38 685.56 448.45 707.87 441.00 728.00
C 457.81 714.23 474.83 695.98 498.00 696.00 C 524.34 693.59 541.70 724.49 531.02 747.02 C 508.75 793.05 451.53 798.44 406.00 801.00 C 381.91 802.09 359.01 788.96 351.00 766.00
C 342.56 788.04 317.27 794.40 295.93 788.07 C 268.84 783.60 281.30 751.96 292.75 737.75 C 305.58 721.56 325.89 715.14 339.97 702.97 C 338.97 692.60 349.20 683.08 358.00 680.00
C 362.11 699.62 362.29 719.92 367.93 739.07 C 370.57 756.70 386.45 773.11 405.22 769.22 C 438.87 742.04 424.74 694.75 422.01 657.99 C 417.79 639.94 416.98 617.31 434.00 606.00
M 555.00 609.00 
C 568.19 650.60 564.34 696.98 569.00 741.00 C 565.59 761.53 590.93 780.73 607.75 764.75 C 619.15 751.02 622.16 732.30 635.75 719.75 C 649.89 702.86 673.76 716.38 678.77 734.23 C 686.30 752.15 686.76 775.89 673.25 791.25 C 655.97 801.21 636.56 784.35 620.00 779.00
C 612.12 792.97 596.85 805.45 579.98 800.02 C 540.46 789.68 550.68 738.86 547.00 707.00 C 545.67 687.82 545.42 668.34 541.07 649.93 C 532.42 635.22 542.76 617.09 555.00 609.00
M 716.00 663.00 
C 718.19 688.58 723.01 713.55 722.00 740.00 C 724.83 761.77 720.51 787.99 703.00 802.00
C 704.44 773.11 703.68 742.76 699.00 714.00 C 700.35 679.68 676.83 636.62 707.08 610.08 C 713.01 614.66 711.55 626.06 716.31 632.69 C 719.89 639.93 723.73 647.19 726.33 654.67 C 732.74 664.27 723.28 672.31 716.00 663.00
M 325.00 661.00 
C 322.05 666.71 317.62 679.82 309.31 675.69 C 302.80 671.29 296.67 665.81 290.00 662.00
C 292.78 653.97 298.38 646.64 303.75 639.75 C 312.54 638.17 319.44 647.76 327.00 651.00
C 330.64 645.43 334.90 630.75 343.75 638.25 C 348.49 644.70 361.47 645.82 360.67 654.67 C 355.31 660.60 353.13 670.33 345.97 673.97 C 338.74 670.05 332.93 663.02 325.00 661.00
M 522.00 649.00 
C 515.14 671.55 484.12 670.92 466.00 681.00
C 466.46 668.12 479.88 663.96 490.07 661.07 C 500.96 657.78 510.34 650.26 522.00 649.00
M 677.00 660.00 
C 675.83 680.47 649.76 679.99 636.77 689.77 C 619.37 695.05 604.23 705.58 587.00 711.00
C 587.66 690.67 612.36 688.17 626.67 680.67 C 643.40 673.59 659.66 665.43 677.00 660.00
M 400.00 675.00 
C 398.02 686.13 387.41 696.54 392.32 708.68 C 397.03 716.50 400.71 705.86 406.00 706.00
C 411.03 722.90 382.58 731.99 383.00 712.00 C 382.22 697.99 389.89 683.50 400.00 675.00
M 533.00 784.00 
C 531.19 809.12 497.76 814.66 477.78 820.78 C 468.28 821.74 458.97 824.52 449.33 823.67 C 448.08 816.71 463.32 818.07 468.69 814.69 C 491.27 806.91 512.10 795.15 533.00 784.00
M 733.00 828.00 
C 729.49 848.45 703.27 843.63 690.00 855.00
C 688.58 848.46 696.61 845.66 697.00 840.00
C 679.10 832.44 699.45 803.82 715.00 807.00 C 725.40 805.91 723.33 827.24 714.75 822.24 C 707.79 814.33 692.60 825.78 706.08 829.92 C 714.83 835.35 724.35 829.52 733.00 828.00 Z"/>
</g>
<g fill="#FEFFFF" fill-opacity="0.95" stroke="None">
<path d="
M 210.00 439.00 
C 211.73 395.72 226.85 355.33 247.08 318.08 C 312.93 197.89 468.32 138.49 596.32 186.68 C 606.05 188.19 614.50 198.56 624.75 194.75 C 635.12 184.53 616.44 179.42 609.22 176.78 C 499.90 133.69 367.69 160.26 285.75 245.75 C 176.53 348.16 165.02 530.32 252.75 648.25 C 259.31 652.54 264.04 669.72 271.74 664.74 C 281.18 656.64 271.70 649.16 266.25 641.75 C 261.19 633.86 254.41 626.45 251.00 618.00
C 291.00 618.00 331.00 618.00 371.00 618.00
C 373.26 610.67 366.32 610.21 361.00 611.00
C 359.36 588.16 369.34 553.37 341.03 545.03 C 314.29 556.27 325.01 588.79 323.00 612.00
C 320.00 612.00 317.00 612.00 314.00 612.00
C 311.10 591.35 321.67 564.99 304.25 549.75 C 286.20 535.49 272.12 568.33 277.00 584.00 C 274.44 592.79 283.65 613.63 269.00 611.00
C 266.23 591.16 276.20 565.82 260.08 550.92 C 243.55 534.39 228.18 564.08 231.00 579.00
C 226.73 571.36 225.00 561.94 221.00 554.00 C 221.48 546.10 209.03 530.00 225.00 533.00 C 270.52 532.33 317.24 534.33 362.00 532.00
C 354.94 525.41 345.24 527.03 336.00 527.00 C 322.83 532.18 323.14 511.98 336.00 517.00 C 349.49 521.04 352.13 511.29 350.00 500.00 C 350.88 470.13 351.28 440.16 351.00 410.00 C 354.73 402.20 355.94 393.42 355.00 384.00
C 369.23 382.24 358.41 373.38 350.70 371.31 C 339.90 369.20 336.98 360.31 339.01 350.01 C 340.01 343.67 350.01 329.26 337.00 330.00
C 337.65 321.43 336.53 313.12 335.22 305.22 C 339.16 290.00 324.21 278.32 325.68 263.34 C 317.83 264.47 325.23 278.05 318.77 282.77 C 309.48 295.83 313.56 313.48 312.00 329.00
C 298.87 328.13 306.85 342.81 310.00 349.00 C 311.75 359.42 309.75 369.39 298.23 371.23 C 290.19 373.17 279.95 382.83 294.22 383.78 C 296.29 404.61 299.46 425.07 298.00 447.00
C 287.24 438.10 276.45 428.66 263.07 423.93 C 252.30 423.29 251.90 414.13 252.97 405.03 C 247.29 391.74 244.01 410.44 245.99 416.99 C 244.49 424.55 233.23 423.17 228.08 428.08 C 222.09 431.75 215.27 433.99 210.00 439.00
M 325.00 286.00 
C 330.45 294.14 328.19 304.17 329.00 313.00
C 326.00 313.00 323.00 313.00 320.00 313.00
C 321.81 304.25 317.20 292.78 325.00 286.00
M 330.00 320.00 
C 330.00 323.00 330.00 326.00 330.00 329.00
C 326.33 329.00 322.67 329.00 319.00 329.00
C 319.00 326.00 319.00 323.00 319.00 320.00
C 322.67 320.00 326.33 320.00 330.00 320.00
M 336.00 337.00 
C 334.27 344.91 313.74 344.95 312.00 337.00
C 320.00 337.00 328.00 337.00 336.00 337.00
M 332.00 350.00 
C 332.00 354.33 332.00 358.67 332.00 363.00
C 327.00 363.00 322.00 363.00 317.00 363.00
C 317.00 358.67 317.00 354.33 317.00 350.00
C 322.00 350.00 327.00 350.00 332.00 350.00
M 343.00 376.00 
C 330.67 376.00 318.33 376.00 306.00 376.00
C 315.63 367.70 333.69 366.89 343.00 376.00
M 306.00 384.00 
C 306.00 389.00 306.00 394.00 306.00 399.00
C 299.75 400.53 299.64 382.49 306.00 384.00
M 315.00 399.00 
C 315.40 393.80 314.66 388.95 314.00 384.00
C 324.00 379.99 322.54 400.29 315.00 399.00
M 335.00 399.00 
C 324.68 402.05 328.73 390.09 328.00 384.00
C 338.01 381.34 334.44 393.17 335.00 399.00
M 347.00 384.00 
C 347.00 389.00 347.00 394.00 347.00 399.00
C 339.33 401.75 339.23 381.27 347.00 384.00
M 344.00 407.00 
C 344.00 418.67 344.00 430.33 344.00 442.00
C 331.00 442.00 318.00 442.00 305.00 442.00
C 305.00 430.33 305.00 418.67 305.00 407.00
C 318.00 407.00 331.00 407.00 344.00 407.00
M 302.00 486.00 
C 279.67 486.00 257.33 486.00 235.00 486.00 C 226.58 483.64 206.77 492.33 209.00 478.00 C 210.58 467.86 205.67 455.19 211.75 446.75 C 224.89 437.43 240.90 425.03 257.07 428.93 C 281.40 437.23 304.52 457.73 302.00 486.00
M 344.00 450.00 
C 344.00 467.00 344.00 484.00 344.00 501.00 C 346.98 511.85 333.81 509.59 327.00 510.00
C 330.98 497.39 319.20 496.68 310.00 498.00
C 312.97 480.80 304.18 466.66 305.00 450.00
C 318.00 450.00 331.00 450.00 344.00 450.00
M 302.00 498.00 
C 283.80 493.39 291.54 515.56 290.00 526.00
C 265.01 525.48 239.38 527.04 214.78 525.22 C 212.46 514.70 210.96 503.72 209.00 493.00
C 230.16 490.67 252.42 492.66 274.00 492.00 C 282.48 494.62 301.43 485.95 302.00 498.00
M 320.00 526.00 
C 312.67 526.00 305.33 526.00 298.00 526.00
C 298.00 519.00 298.00 512.00 298.00 505.00
C 304.86 505.22 311.93 504.56 318.67 505.33 C 321.67 511.20 319.18 519.28 320.00 526.00
M 262.00 611.00 
C 242.80 616.75 236.64 595.11 239.00 580.00 C 233.90 568.12 248.50 541.23 258.25 559.75 C 264.26 575.13 261.05 593.93 262.00 611.00
M 307.00 611.00 
C 299.67 611.00 292.33 611.00 285.00 611.00
C 288.47 592.13 275.98 564.01 296.03 553.03 C 315.82 564.59 303.65 591.94 307.00 611.00
M 354.00 611.00 
C 346.03 609.09 327.68 616.57 330.00 603.00 C 330.22 592.14 329.56 581.07 330.33 570.33 C 330.10 563.49 337.10 551.09 344.74 554.26 C 360.47 568.02 351.46 592.12 354.00 611.00 Z"/>
</g>
<g fill="#FEFFFF" fill-opacity="1.00" stroke="None">
<path d="
M 681.00 266.00 
C 700.62 258.51 719.49 248.92 738.92 240.92 C 748.52 238.11 761.71 230.92 749.92 221.08 C 740.16 203.81 727.56 187.84 718.99 170.01 C 714.91 155.85 702.32 173.11 695.25 176.25 C 688.06 183.04 679.70 187.91 672.23 194.23 C 664.32 198.96 657.14 208.97 648.74 210.26 C 636.89 203.78 634.83 222.08 625.08 225.08 C 603.64 235.88 577.94 231.34 555.23 238.23 C 531.81 256.68 509.27 278.22 500.92 306.92 C 494.65 314.85 493.63 331.52 507.00 332.00
C 498.37 348.03 486.57 363.25 477.25 379.25 C 468.63 393.42 447.35 413.47 464.77 429.23 C 481.55 433.76 496.62 460.96 515.25 445.25 C 526.76 430.71 534.92 414.34 545.25 399.25 C 553.82 382.23 571.11 368.13 569.00 347.00
C 587.37 349.56 592.81 326.71 607.30 320.30 C 620.53 312.94 634.53 305.44 642.70 291.70 C 649.71 272.00 685.43 290.67 681.00 266.00 Z"/>
</g>
<g fill="#FEFFFF" fill-opacity="0.02" stroke="None">
<path d="
M 325.00 286.00 
C 317.20 292.78 321.81 304.25 320.00 313.00
C 323.00 313.00 326.00 313.00 329.00 313.00
C 328.19 304.17 330.45 294.14 325.00 286.00 Z"/>
</g>
<g fill="#FEFFFF" fill-opacity="0.95" stroke="None">
<path d="
M 805.00 326.00 
C 784.79 312.56 762.79 299.66 741.00 289.00
C 741.50 313.62 739.90 338.78 742.00 363.00
C 750.13 357.47 756.89 349.86 764.92 344.08 C 785.60 384.75 794.14 433.00 792.00 480.00
C 781.33 480.00 770.67 480.00 760.00 480.00 C 746.44 482.69 753.85 464.80 752.03 457.03 C 758.10 451.66 758.37 439.02 747.00 441.00
C 745.02 419.75 727.76 402.73 708.23 395.77 C 697.17 394.87 703.73 382.44 699.03 377.03 C 689.99 379.02 700.58 395.39 689.23 395.23 C 670.51 403.21 651.84 419.33 651.00 441.00
C 644.48 438.92 636.58 446.44 641.75 452.25 C 651.46 461.22 641.55 479.32 650.00 490.00
C 652.34 480.99 650.32 469.84 651.01 460.01 C 654.32 452.04 668.88 456.45 677.00 455.00
C 677.00 470.00 677.00 485.00 677.00 500.00 C 682.70 520.93 649.55 500.01 650.00 517.00
C 679.68 521.01 703.47 504.22 730.00 497.00
C 728.74 506.69 732.57 518.85 728.00 527.00 C 706.67 527.00 685.33 527.00 664.00 527.00 C 655.44 528.07 643.77 523.39 639.00 533.00
C 687.33 533.00 735.67 533.00 784.00 533.00
C 783.52 539.99 780.93 546.41 779.00 553.00
C 772.21 549.05 762.93 538.32 756.25 549.25 C 735.90 563.41 748.44 591.09 745.00 612.00
C 732.26 615.69 728.59 607.26 731.00 596.00 C 731.00 586.00 731.00 576.00 731.00 566.00 C 730.57 552.31 709.96 536.83 700.25 552.25 C 685.03 564.27 694.73 586.23 692.00 603.00
C 702.11 599.66 696.62 587.00 698.00 579.00 C 692.87 564.23 709.69 542.31 721.75 559.25 C 728.44 565.63 723.46 576.62 725.00 585.00 C 724.98 594.01 724.90 603.97 725.33 612.33 C 724.22 623.15 741.15 615.90 748.00 618.00
C 747.27 625.40 740.39 630.10 737.75 636.75 C 731.95 641.66 739.60 649.77 743.00 654.00
C 787.49 594.46 810.74 520.98 805.00 445.00 C 804.20 406.24 790.86 370.38 779.00 335.00
C 787.78 332.25 796.51 329.57 805.00 326.00
M 739.00 439.00 
C 712.51 436.38 685.49 436.68 659.00 439.00
C 659.49 418.00 680.95 404.67 699.00 400.00 C 717.19 404.66 737.12 418.86 739.00 439.00
M 749.00 448.00 
C 741.02 452.76 727.58 445.77 717.00 448.00 C 693.86 446.79 669.78 449.69 648.00 449.00
C 680.06 442.72 716.19 444.44 749.00 448.00
M 713.00 456.00 
C 712.44 469.03 715.21 481.66 713.67 494.67 C 704.01 499.00 694.24 503.02 684.00 506.00
C 684.00 489.33 684.00 472.67 684.00 456.00
C 693.67 456.00 703.33 456.00 713.00 456.00
M 746.00 457.00 
C 745.20 464.45 747.62 473.00 744.74 479.74 C 736.18 479.33 745.41 465.54 737.75 462.25 C 731.63 458.47 725.74 464.58 724.08 470.08 C 722.26 476.83 727.55 488.43 721.00 492.00
C 721.00 480.00 721.00 468.00 721.00 456.00
C 729.60 455.28 737.42 457.62 746.00 457.00
M 734.00 469.00 
C 734.13 472.09 737.32 478.62 732.00 479.00
C 732.92 475.96 729.92 469.69 734.00 469.00
M 791.00 487.00 
C 789.61 496.02 789.99 505.60 787.22 514.22 C 789.45 527.40 778.05 527.01 768.00 526.00 C 757.33 526.00 746.67 526.00 736.00 526.00
C 736.00 513.00 736.00 500.00 736.00 487.00
C 754.33 487.00 772.67 487.00 791.00 487.00
M 753.00 610.00 
C 752.35 594.41 749.19 574.58 754.77 559.77 C 763.53 542.65 782.90 562.31 770.69 573.70 C 766.16 586.20 760.73 599.19 753.00 610.00 Z"/>
</g>
<g fill="#FEFFFF" fill-opacity="0.03" stroke="None">
<path d="
M 330.00 320.00 
C 326.33 320.00 322.67 320.00 319.00 320.00
C 319.00 323.00 319.00 326.00 319.00 329.00
C 322.67 329.00 326.33 329.00 330.00 329.00
C 330.00 326.00 330.00 323.00 330.00 320.00 Z"/>
</g>
<g fill="#FEFFFF" fill-opacity="0.02" stroke="None">
<path d="
M 336.00 337.00 
C 328.00 337.00 320.00 337.00 312.00 337.00
C 313.74 344.95 334.27 344.91 336.00 337.00 Z"/>
</g>
<g fill="#FEFFFF" fill-opacity="0.02" stroke="None">
<path d="
M 332.00 350.00 
C 327.00 350.00 322.00 350.00 317.00 350.00
C 317.00 354.33 317.00 358.67 317.00 363.00
C 322.00 363.00 327.00 363.00 332.00 363.00
C 332.00 358.67 332.00 354.33 332.00 350.00 Z"/>
</g>
<g fill="#FEFFFF" fill-opacity="0.02" stroke="None">
<path d="
M 343.00 376.00 
C 333.69 366.89 315.63 367.70 306.00 376.00
C 318.33 376.00 330.67 376.00 343.00 376.00 Z"/>
</g>
<g fill="#FEFFFF" fill-opacity="0.03" stroke="None">
<path d="
M 306.00 384.00 
C 299.64 382.49 299.75 400.53 306.00 399.00
C 306.00 394.00 306.00 389.00 306.00 384.00 Z"/>
</g>
<g fill="#FEFFFF" fill-opacity="0.02" stroke="None">
<path d="
M 315.00 399.00 
C 322.54 400.29 324.00 379.99 314.00 384.00
C 314.66 388.95 315.40 393.80 315.00 399.00 Z"/>
</g>
<g fill="#FEFFFF" fill-opacity="0.05" stroke="None">
<path d="
M 335.00 399.00 
C 334.44 393.17 338.01 381.34 328.00 384.00
C 328.73 390.09 324.68 402.05 335.00 399.00 Z"/>
</g>
<g fill="#FEFFFF" fill-opacity="0.02" stroke="None">
<path d="
M 347.00 384.00 
C 339.23 381.27 339.33 401.75 347.00 399.00
C 347.00 394.00 347.00 389.00 347.00 384.00 Z"/>
</g>
<g fill="#FEFFFF" fill-opacity="1.00" stroke="None">
<path d="
M 454.00 459.00 
C 448.03 442.88 441.99 421.49 422.23 416.77 C 413.21 412.25 415.61 399.95 409.69 393.31 C 400.11 389.73 390.56 396.73 381.75 399.75 C 374.03 405.28 379.21 419.92 386.00 424.00
C 385.92 434.31 377.93 442.04 380.00 453.00 C 379.94 462.83 385.42 470.99 388.00 480.00
C 377.14 478.72 362.28 480.14 359.78 492.78 C 358.36 502.80 356.37 518.44 368.78 522.22 C 381.34 525.21 371.94 545.22 377.00 555.00 C 379.34 592.50 381.76 629.99 386.00 667.00
C 389.82 664.90 394.13 662.57 395.00 658.00
C 398.89 659.41 402.92 659.87 407.00 661.00
C 405.18 642.47 401.67 621.89 414.68 606.68 C 418.78 588.33 449.70 584.19 449.02 606.98 C 449.60 625.04 470.91 634.30 469.00 653.00
C 482.53 650.22 494.86 643.54 507.78 638.78 C 523.04 636.91 526.60 623.91 533.23 612.23 C 539.01 602.15 552.58 587.77 563.92 599.08 C 574.44 608.87 572.99 625.68 576.02 638.98 C 578.93 654.34 578.32 670.59 581.00 686.00
C 590.95 682.28 599.94 676.46 609.92 672.92 C 620.04 666.00 614.34 649.24 617.00 638.00 C 620.69 599.97 622.45 561.00 626.33 523.33 C 652.73 520.97 642.23 470.74 615.00 481.00
C 614.68 470.90 612.97 461.07 607.00 453.00
C 611.02 448.52 626.22 439.53 616.00 435.00 C 606.78 433.55 600.43 425.39 590.25 425.75 C 578.28 416.10 581.91 439.49 583.00 446.00
C 574.87 451.00 568.92 446.84 567.25 437.75 C 556.47 425.72 534.35 433.63 532.26 448.26 C 532.57 458.45 524.71 462.21 515.01 460.01 C 507.42 460.50 505.96 471.24 499.00 473.00
C 493.53 466.37 486.73 460.56 480.75 454.25 C 472.22 447.57 461.80 455.40 454.00 459.00
M 508.00 480.00 
C 510.22 473.38 517.60 465.80 525.22 469.78 C 528.48 479.55 515.13 481.41 508.00 480.00 Z"/>
</g>
<g fill="#FEFFFF" fill-opacity="0.00" stroke="None">
<path d="
M 739.00 439.00 
C 737.12 418.86 717.19 404.66 699.00 400.00 C 680.95 404.67 659.49 418.00 659.00 439.00
C 685.49 436.68 712.51 436.38 739.00 439.00 Z"/>
</g>
<g fill="#FEFFFF" fill-opacity="0.06" stroke="None">
<path d="
M 344.00 407.00 
C 331.00 407.00 318.00 407.00 305.00 407.00
C 305.00 418.67 305.00 430.33 305.00 442.00
C 318.00 442.00 331.00 442.00 344.00 442.00
C 344.00 430.33 344.00 418.67 344.00 407.00
M 319.00 438.00 
C 306.21 435.24 318.44 404.54 330.75 418.25 C 335.49 423.28 334.80 432.74 332.74 438.74 C 325.01 437.83 331.98 425.84 326.25 421.75 C 317.49 419.62 318.77 432.03 319.00 438.00 Z"/>
</g>
<g fill="#FEFFFF" fill-opacity="0.98" stroke="None">
<path d="
M 319.00 438.00 
C 318.77 432.03 317.49 419.62 326.25 421.75 C 331.98 425.84 325.01 437.83 332.74 438.74 C 334.80 432.74 335.49 423.28 330.75 418.25 C 318.44 404.54 306.21 435.24 319.00 438.00 Z"/>
</g>
<g fill="#FEFFFF" fill-opacity="0.01" stroke="None">
<path d="
M 302.00 486.00 
C 304.52 457.73 281.40 437.23 257.07 428.93 C 240.90 425.03 224.89 437.43 211.75 446.75 C 205.67 455.19 210.58 467.86 209.00 478.00 C 206.77 492.33 226.58 483.64 235.00 486.00 C 257.33 486.00 279.67 486.00 302.00 486.00 Z"/>
</g>
<g fill="#FEFFFF" fill-opacity="0.05" stroke="None">
<path d="
M 749.00 448.00 
C 716.19 444.44 680.06 442.72 648.00 449.00
C 669.78 449.69 693.86 446.79 717.00 448.00 C 727.58 445.77 741.02 452.76 749.00 448.00 Z"/>
</g>
<g fill="#FEFFFF" fill-opacity="0.00" stroke="None">
<path d="
M 344.00 450.00 
C 331.00 450.00 318.00 450.00 305.00 450.00
C 304.18 466.66 312.97 480.80 310.00 498.00
C 319.20 496.68 330.98 497.39 327.00 510.00
C 333.81 509.59 346.98 511.85 344.00 501.00 C 344.00 484.00 344.00 467.00 344.00 450.00 Z"/>
</g>
<g fill="#FEFFFF" fill-opacity="0.06" stroke="None">
<path d="
M 713.00 456.00 
C 703.33 456.00 693.67 456.00 684.00 456.00
C 684.00 472.67 684.00 489.33 684.00 506.00
C 694.24 503.02 704.01 499.00 713.67 494.67 C 715.21 481.66 712.44 469.03 713.00 456.00
M 702.00 461.00 
C 711.03 467.28 707.31 478.50 708.00 488.00 C 704.58 495.48 684.14 494.28 689.00 482.00 C 687.35 472.83 689.91 459.08 702.00 461.00 Z"/>
</g>
<g fill="#FEFFFF" fill-opacity="0.06" stroke="None">
<path d="
M 746.00 457.00 
C 737.42 457.62 729.60 455.28 721.00 456.00
C 721.00 468.00 721.00 480.00 721.00 492.00
C 727.55 488.43 722.26 476.83 724.08 470.08 C 725.74 464.58 731.63 458.47 737.75 462.25 C 745.41 465.54 736.18 479.33 744.74 479.74 C 747.62 473.00 745.20 464.45 746.00 457.00 Z"/>
</g>
<g fill="#FEFFFF" fill-opacity="0.93" stroke="None">
<path d="
M 702.00 461.00 
C 689.91 459.08 687.35 472.83 689.00 482.00 C 684.14 494.28 704.58 495.48 708.00 488.00 C 707.31 478.50 711.03 467.28 702.00 461.00
M 702.00 485.00 
C 692.47 487.54 696.30 473.98 696.78 468.78 C 704.39 467.00 701.38 479.99 702.00 485.00 Z"/>
</g>
<g fill="#FEFFFF" fill-opacity="0.89" stroke="None">
<path d="
M 668.00 463.00 
C 656.34 459.74 654.92 472.69 656.00 481.00 C 651.07 492.48 666.15 495.97 672.00 489.00 C 670.89 480.32 675.05 469.63 668.00 463.00
M 664.00 485.00 
C 662.40 481.07 662.30 473.86 664.00 470.00
C 665.60 473.93 665.70 481.14 664.00 485.00 Z"/>
</g>
<g fill="#FEFFFF" fill-opacity="0.02" stroke="None">
<path d="
M 702.00 485.00 
C 701.38 479.99 704.39 467.00 696.78 468.78 C 696.30 473.98 692.47 487.54 702.00 485.00 Z"/>
</g>
<g fill="#FEFFFF" fill-opacity="0.04" stroke="None">
<path d="
M 508.00 480.00 
C 515.13 481.41 528.48 479.55 525.22 469.78 C 517.60 465.80 510.22 473.38 508.00 480.00 Z"/>
</g>
<g fill="#FEFFFF" fill-opacity="0.05" stroke="None">
<path d="
M 734.00 469.00 
C 729.92 469.69 732.92 475.96 732.00 479.00
C 737.32 478.62 734.13 472.09 734.00 469.00 Z"/>
</g>
<g fill="#FEFFFF" fill-opacity="0.01" stroke="None">
<path d="
M 664.00 485.00 
C 665.70 481.14 665.60 473.93 664.00 470.00
C 662.30 473.86 662.40 481.07 664.00 485.00 Z"/>
</g>
<g fill="#FEFFFF" fill-opacity="0.04" stroke="None">
<path d="
M 791.00 487.00 
C 772.67 487.00 754.33 487.00 736.00 487.00
C 736.00 500.00 736.00 513.00 736.00 526.00
C 746.67 526.00 757.33 526.00 768.00 526.00 C 778.05 527.01 789.45 527.40 787.22 514.22 C 789.99 505.60 789.61 496.02 791.00 487.00
M 782.00 497.00 
C 784.45 501.75 787.39 517.32 779.33 516.67 C 775.95 512.26 773.97 497.63 782.00 497.00
M 752.00 498.00 
C 754.06 503.27 757.42 517.14 749.32 517.66 C 746.14 513.35 743.65 497.59 752.00 498.00
M 768.00 498.00 
C 768.69 502.99 772.59 518.97 763.78 516.22 C 761.41 511.57 758.54 496.18 768.00 498.00 Z"/>
</g>
<g fill="#FEFFFF" fill-opacity="0.05" stroke="None">
<path d="
M 302.00 498.00 
C 301.43 485.95 282.48 494.62 274.00 492.00 C 252.42 492.66 230.16 490.67 209.00 493.00
C 210.96 503.72 212.46 514.70 214.78 525.22 C 239.38 527.04 265.01 525.48 290.00 526.00
C 291.54 515.56 283.80 493.39 302.00 498.00
M 243.00 499.00 
C 246.88 503.58 249.21 517.32 240.99 517.99 C 236.36 514.48 235.22 499.40 243.00 499.00
M 227.00 500.00 
C 227.96 504.53 231.14 519.32 222.78 516.22 C 219.86 511.72 219.08 499.15 227.00 500.00
M 260.00 500.00 
C 262.63 504.26 265.12 517.86 257.00 517.00 C 253.92 513.36 252.40 499.97 260.00 500.00
M 277.00 500.00 
C 279.79 504.33 281.76 517.74 274.32 517.66 C 270.99 513.85 268.95 499.15 277.00 500.00 Z"/>
</g>
<g fill="#FEFFFF" fill-opacity="0.94" stroke="None">
<path d="
M 782.00 497.00 
C 773.97 497.63 775.95 512.26 779.33 516.67 C 787.39 517.32 784.45 501.75 782.00 497.00 Z"/>
</g>
<g fill="#FEFFFF" fill-opacity="0.96" stroke="None">
<path d="
M 752.00 498.00 
C 743.65 497.59 746.14 513.35 749.32 517.66 C 757.42 517.14 754.06 503.27 752.00 498.00 Z"/>
</g>
<g fill="#FEFFFF" fill-opacity="0.96" stroke="None">
<path d="
M 768.00 498.00 
C 758.54 496.18 761.41 511.57 763.78 516.22 C 772.59 518.97 768.69 502.99 768.00 498.00 Z"/>
</g>
<g fill="#FEFFFF" fill-opacity="0.92" stroke="None">
<path d="
M 243.00 499.00 
C 235.22 499.40 236.36 514.48 240.99 517.99 C 249.21 517.32 246.88 503.58 243.00 499.00 Z"/>
</g>
<g fill="#FEFFFF" fill-opacity="0.98" stroke="None">
<path d="
M 227.00 500.00 
C 219.08 499.15 219.86 511.72 222.78 516.22 C 231.14 519.32 227.96 504.53 227.00 500.00 Z"/>
</g>
<g fill="#FEFFFF" fill-opacity="0.98" stroke="None">
<path d="
M 260.00 500.00 
C 252.40 499.97 253.92 513.36 257.00 517.00 C 265.12 517.86 262.63 504.26 260.00 500.00 Z"/>
</g>
<g fill="#FEFFFF" fill-opacity="0.98" stroke="None">
<path d="
M 277.00 500.00 
C 268.95 499.15 270.99 513.85 274.32 517.66 C 281.76 517.74 279.79 504.33 277.00 500.00 Z"/>
</g>
<g fill="#FEFFFF" fill-opacity="0.02" stroke="None">
<path d="
M 320.00 526.00 
C 319.18 519.28 321.67 511.20 318.67 505.33 C 311.93 504.56 304.86 505.22 298.00 505.00
C 298.00 512.00 298.00 519.00 298.00 526.00
C 305.33 526.00 312.67 526.00 320.00 526.00 Z"/>
</g>
<g fill="#FEFFFF" fill-opacity="0.98" stroke="None">
<path d="
M 678.00 611.00 
C 677.95 595.36 678.10 579.71 677.93 564.07 C 674.94 555.08 662.68 540.20 652.75 547.75 C 631.79 558.64 640.95 585.42 639.00 605.00 C 643.08 616.47 625.36 607.43 629.00 618.00
C 640.00 618.00 651.00 618.00 662.00 618.00 C 670.35 616.30 685.50 622.96 687.00 611.00
C 684.00 611.00 681.00 611.00 678.00 611.00
M 661.00 552.00 
C 679.42 565.54 669.55 590.39 672.00 610.00 C 665.66 611.96 644.98 616.81 645.00 606.00 C 647.09 587.68 636.82 557.36 661.00 552.00 Z"/>
</g>
<g fill="#FEFFFF" fill-opacity="0.01" stroke="None">
<path d="
M 262.00 611.00 
C 261.05 593.93 264.26 575.13 258.25 559.75 C 248.50 541.23 233.90 568.12 239.00 580.00 C 236.64 595.11 242.80 616.75 262.00 611.00 Z"/>
</g>
<g fill="#FEFFFF" fill-opacity="0.06" stroke="None">
<path d="
M 661.00 552.00 
C 636.82 557.36 647.09 587.68 645.00 606.00 C 644.98 616.81 665.66 611.96 672.00 610.00 C 669.55 590.39 679.42 565.54 661.00 552.00 Z"/>
</g>
<g fill="#FEFFFF" fill-opacity="0.02" stroke="None">
<path d="
M 753.00 610.00 
C 760.73 599.19 766.16 586.20 770.69 573.70 C 782.90 562.31 763.53 542.65 754.77 559.77 C 749.19 574.58 752.35 594.41 753.00 610.00 Z"/>
</g>
<g fill="#FEFFFF" fill-opacity="0.01" stroke="None">
<path d="
M 307.00 611.00 
C 303.65 591.94 315.82 564.59 296.03 553.03 C 275.98 564.01 288.47 592.13 285.00 611.00
C 292.33 611.00 299.67 611.00 307.00 611.00 Z"/>
</g>
<g fill="#FEFFFF" fill-opacity="0.01" stroke="None">
<path d="
M 354.00 611.00 
C 351.46 592.12 360.47 568.02 344.74 554.26 C 337.10 551.09 330.10 563.49 330.33 570.33 C 329.56 581.07 330.22 592.14 330.00 603.00 C 327.68 616.57 346.03 609.09 354.00 611.00 Z"/>
</g>
<g fill="#FEFFFF" fill-opacity="0.98" stroke="None">
<path d="
M 434.00 606.00 
C 416.98 617.31 417.79 639.94 422.01 657.99 C 424.74 694.75 438.87 742.04 405.22 769.22 C 386.45 773.11 370.57 756.70 367.93 739.07 C 362.29 719.92 362.11 699.62 358.00 680.00
C 349.20 683.08 338.97 692.60 339.97 702.97 C 325.89 715.14 305.58 721.56 292.75 737.75 C 281.30 751.96 268.84 783.60 295.93 788.07 C 317.27 794.40 342.56 788.04 351.00 766.00
C 359.01 788.96 381.91 802.09 406.00 801.00 C 451.53 798.44 508.75 793.05 531.02 747.02 C 541.70 724.49 524.34 693.59 498.00 696.00 C 474.83 695.98 457.81 714.23 441.00 728.00
C 448.45 707.87 445.38 685.56 445.00 664.00
C 452.07 664.89 454.23 651.47 453.75 645.25 C 444.26 633.69 436.18 620.76 434.00 606.00
M 342.00 725.00 
C 341.42 734.35 353.08 748.87 343.30 754.31 C 333.43 761.13 319.49 759.31 307.99 758.01 C 293.53 754.60 309.11 742.57 315.74 739.74 C 324.88 735.59 332.22 727.72 342.00 725.00
M 426.00 769.00 
C 441.52 749.32 461.94 726.82 488.00 725.00 C 499.06 723.02 520.47 736.56 511.75 747.75 C 484.94 760.26 456.58 769.39 426.00 769.00 Z"/>
</g>
<g fill="#FEFFFF" fill-opacity="0.99" stroke="None">
<path d="
M 555.00 609.00 
C 542.76 617.09 532.42 635.22 541.07 649.93 C 545.42 668.34 545.67 687.82 547.00 707.00 C 550.68 738.86 540.46 789.68 579.98 800.02 C 596.85 805.45 612.12 792.97 620.00 779.00
C 636.56 784.35 655.97 801.21 673.25 791.25 C 686.76 775.89 686.30 752.15 678.77 734.23 C 673.76 716.38 649.89 702.86 635.75 719.75 C 622.16 732.30 619.15 751.02 607.75 764.75 C 590.93 780.73 565.59 761.53 569.00 741.00 C 564.34 696.98 568.19 650.60 555.00 609.00
M 662.00 764.00 
C 653.33 761.98 645.84 757.02 637.77 753.23 C 626.88 749.27 642.75 736.29 649.22 740.78 C 657.07 745.50 662.33 754.83 662.00 764.00 Z"/>
</g>
<g fill="#FEFFFF" fill-opacity="0.99" stroke="None">
<path d="
M 716.00 663.00 
C 723.28 672.31 732.74 664.27 726.33 654.67 C 723.73 647.19 719.89 639.93 716.31 632.69 C 711.55 626.06 713.01 614.66 707.08 610.08 C 676.83 636.62 700.35 679.68 699.00 714.00 C 703.68 742.76 704.44 773.11 703.00 802.00
C 720.51 787.99 724.83 761.77 722.00 740.00 C 723.01 713.55 718.19 688.58 716.00 663.00 Z"/>
</g>
<g fill="#FEFFFF" fill-opacity="0.99" stroke="None">
<path d="
M 325.00 661.00 
C 332.93 663.02 338.74 670.05 345.97 673.97 C 353.13 670.33 355.31 660.60 360.67 654.67 C 361.47 645.82 348.49 644.70 343.75 638.25 C 334.90 630.75 330.64 645.43 327.00 651.00
C 319.44 647.76 312.54 638.17 303.75 639.75 C 298.38 646.64 292.78 653.97 290.00 662.00
C 296.67 665.81 302.80 671.29 309.31 675.69 C 317.62 679.82 322.05 666.71 325.00 661.00 Z"/>
</g>
<g fill="#FEFFFF" fill-opacity="0.97" stroke="None">
<path d="
M 522.00 649.00 
C 510.34 650.26 500.96 657.78 490.07 661.07 C 479.88 663.96 466.46 668.12 466.00 681.00
C 484.12 670.92 515.14 671.55 522.00 649.00 Z"/>
</g>
<g fill="#FEFFFF" fill-opacity="0.98" stroke="None">
<path d="
M 677.00 660.00 
C 659.66 665.43 643.40 673.59 626.67 680.67 C 612.36 688.17 587.66 690.67 587.00 711.00
C 604.23 705.58 619.37 695.05 636.77 689.77 C 649.76 679.99 675.83 680.47 677.00 660.00 Z"/>
</g>
<g fill="#FEFFFF" fill-opacity="0.97" stroke="None">
<path d="
M 400.00 675.00 
C 389.89 683.50 382.22 697.99 383.00 712.00 C 382.58 731.99 411.03 722.90 406.00 706.00
C 400.71 705.86 397.03 716.50 392.32 708.68 C 387.41 696.54 398.02 686.13 400.00 675.00 Z"/>
</g>
<g fill="#FEFFFF" fill-opacity="0.01" stroke="None">
<path d="
M 342.00 725.00 
C 332.22 727.72 324.88 735.59 315.74 739.74 C 309.11 742.57 293.53 754.60 307.99 758.01 C 319.49 759.31 333.43 761.13 343.30 754.31 C 353.08 748.87 341.42 734.35 342.00 725.00 Z"/>
</g>
<g fill="#FEFFFF" fill-opacity="0.01" stroke="None">
<path d="
M 426.00 769.00 
C 456.58 769.39 484.94 760.26 511.75 747.75 C 520.47 736.56 499.06 723.02 488.00 725.00 C 461.94 726.82 441.52 749.32 426.00 769.00 Z"/>
</g>
<g fill="#FEFFFF" fill-opacity="0.03" stroke="None">
<path d="
M 662.00 764.00 
C 662.33 754.83 657.07 745.50 649.22 740.78 C 642.75 736.29 626.88 749.27 637.77 753.23 C 645.84 757.02 653.33 761.98 662.00 764.00 Z"/>
</g>
<g fill="#FEFFFF" fill-opacity="0.98" stroke="None">
<path d="
M 533.00 784.00 
C 512.10 795.15 491.27 806.91 468.69 814.69 C 463.32 818.07 448.08 816.71 449.33 823.67 C 458.97 824.52 468.28 821.74 477.78 820.78 C 497.76 814.66 531.19 809.12 533.00 784.00 Z"/>
</g>
<g fill="#FEFFFF" fill-opacity="0.98" stroke="None">
<path d="
M 733.00 828.00 
C 724.35 829.52 714.83 835.35 706.08 829.92 C 692.60 825.78 707.79 814.33 714.75 822.24 C 723.33 827.24 725.40 805.91 715.00 807.00 C 699.45 803.82 679.10 832.44 697.00 840.00
C 696.61 845.66 688.58 848.46 690.00 855.00
C 703.27 843.63 729.49 848.45 733.00 828.00 Z"/>
</g>
</svg>